<?xml version="1.0" encoding="iso-8859-1"?>
<!-- Generator: Adobe Illustrator 19.0.0, SVG Export Plug-In . SVG Version: 6.00 Build 0)  -->
<svg version="1.1" id="Layer_1" xmlns="http://www.w3.org/2000/svg" xmlns:xlink="http://www.w3.org/1999/xlink" x="0px" y="0px"
	 viewBox="0 0 512 512" style="enable-background:new 0 0 512 512;" xml:space="preserve">
<g>
	<g>
		<path d="M256,90.353c-91.485,0-165.647,74.162-165.647,165.647S164.515,421.647,256,421.647S421.647,347.485,421.647,256
			S347.485,90.353,256,90.353z M256,135.529c45.395,0,84.994,25.248,105.526,62.429C332.869,187.181,296.1,180.704,256,180.706
			c-40.1-0.001-76.869,6.475-105.526,17.253C171.006,160.777,210.605,135.529,256,135.529z M256,376.471
			c-45.396,0-84.995-25.248-105.528-62.431c28.657,10.778,65.426,17.256,105.526,17.256c40.1,0,76.871-6.478,105.529-17.256
			C340.995,351.221,301.396,376.471,256,376.471z M343.88,272.402c-24.367,8.846-55.576,13.717-87.879,13.717
			c-32.304,0-63.515-4.872-87.879-13.717c-16.578-6.019-25.85-12.383-30.226-16.402c4.376-4.019,13.648-10.383,30.225-16.402
			c24.367-8.846,55.575-13.717,87.886-13.716h0.006c32.301,0,63.509,4.872,87.873,13.717c16.572,6.018,25.842,12.381,30.22,16.401
			C369.73,260.019,360.457,266.383,343.88,272.402z"/>
	</g>
</g>
<g>
	<g>
		<rect x="233.412" width="45.177" height="45.176"/>
	</g>
</g>
<g>
	<g>
		<rect x="233.412" y="466.824" width="45.177" height="45.176"/>
	</g>
</g>
<g>
</g>
<g>
</g>
<g>
</g>
<g>
</g>
<g>
</g>
<g>
</g>
<g>
</g>
<g>
</g>
<g>
</g>
<g>
</g>
<g>
</g>
<g>
</g>
<g>
</g>
<g>
</g>
<g>
</g>
</svg>
