<?xml version="1.0" encoding="iso-8859-1"?>
<!-- Generator: Adobe Illustrator 19.0.0, SVG Export Plug-In . SVG Version: 6.00 Build 0)  -->
<svg version="1.1" id="Layer_1" xmlns="http://www.w3.org/2000/svg" xmlns:xlink="http://www.w3.org/1999/xlink" x="0px" y="0px"
	 viewBox="0 0 512 512" style="enable-background:new 0 0 512 512;" xml:space="preserve">
<g>
	<g>
		<path d="M376.471,271.059v-60.235h30.118v-45.177h-30.118v-60.235h-94.895V84.295c13.499-7.813,22.588-22.4,22.588-39.118
			C304.164,20.227,283.937,0,258.988,0c-24.949,0-45.176,20.227-45.176,45.176c0,16.718,9.089,31.306,22.588,39.118v21.117h-100.87
			v60.235h-30.118v45.177h30.118v60.235h100.87v45.176h-70.752v150.588h-45.176V512h271.059v-45.176h-45.176V316.235h-64.779
			v-45.176H376.471z M301.176,361.412v105.412h-90.353V361.412H301.176z M180.706,225.882v-75.294h150.588v75.294H180.706z"/>
	</g>
</g>
<g>
	<g>
		<circle cx="218.353" cy="188.235" r="22.588"/>
	</g>
</g>
<g>
	<g>
		<circle cx="293.647" cy="188.235" r="22.588"/>
	</g>
</g>
<g>
</g>
<g>
</g>
<g>
</g>
<g>
</g>
<g>
</g>
<g>
</g>
<g>
</g>
<g>
</g>
<g>
</g>
<g>
</g>
<g>
</g>
<g>
</g>
<g>
</g>
<g>
</g>
<g>
</g>
</svg>
