<?xml version="1.0" encoding="iso-8859-1"?>
<!-- Generator: Adobe Illustrator 19.0.0, SVG Export Plug-In . SVG Version: 6.00 Build 0)  -->
<svg version="1.1" id="Layer_1" xmlns="http://www.w3.org/2000/svg" xmlns:xlink="http://www.w3.org/1999/xlink" x="0px" y="0px"
	 viewBox="0 0 512 512" style="enable-background:new 0 0 512 512;" xml:space="preserve">
<g>
	<g>
		<path d="M230.612,430.245h-82.758c-8.836,0-16,7.164-16,16V496c0,8.836,7.164,16,16,16h82.758c8.836,0,16-7.164,16-16v-49.755
			C246.612,437.409,239.449,430.245,230.612,430.245z"/>
	</g>
</g>
<g>
	<g>
		<path d="M364.146,430.245h-82.758c-8.836,0-16,7.164-16,16V496c0,8.836,7.164,16,16,16h82.758c8.836,0,16-7.164,16-16v-49.755
			C380.146,437.409,372.982,430.245,364.146,430.245z"/>
	</g>
</g>
<g>
	<g>
		<path d="M395.275,195.427h-0.609c-17.062,0-113.143,0-122.666,0v-13.627h46.245c8.836,0,16-7.164,16-16v-14.158h28.032
			c8.836,0,16-7.164,16-16c0-26.841,0-95.234,0-119.643c0-8.836-7.164-16-16-16c-8.836,0-16,7.164-16,16v56.046h-12.032V57.888
			c0-8.836-7.164-16-16-16H193.755c-8.836,0-16,7.164-16,16v14.158h-12.032V16c0-8.836-7.164-16-16-16c-8.836,0-16,7.164-16,16
			c0,25.099,0,93.14,0,119.643c0,8.836,7.164,16,16,16h28.032v14.158c0,8.836,7.164,16,16,16H240v13.627
			c-31.706,0-112.093,0-122.666,0h-0.609c-35.267,0-63.957,28.691-63.957,63.956c0,3.825,0,147.12,0,151.19c0,8.836,7.164,16,16,16
			s16-7.164,16-16v-17.968h16.566v17.968c0,8.836,7.164,16,16,16s16-7.164,16-16c0-4.518,0-177.459,0-183.148h10.163
			c0,12.064,0,165.105,0,171.025c3.757-0.34,87.996-0.315,91.472,0v-35.714h42.061v35.714c3.484-0.315,87.715-0.34,91.472,0
			c0-5.909,0-158.95,0-171.025h10.163c0,5.699,0,178.655,0,183.148c0,8.836,7.164,16,16,16s16-7.164,16-16v-17.968h16.566v17.968
			c0,8.836,7.164,16,16,16s16-7.164,16-16c0-4.071,0-147.365,0-151.19C459.232,224.118,430.542,195.427,395.275,195.427z
			 M334.246,104.046h12.032v15.597h-12.032V104.046z M177.754,119.643h-12.032v-15.597h12.032V119.643z M224.347,279.084
			c0,8.836-7.164,16-16,16s-16-7.164-16-16V255.91c0-8.836,7.164-16,16-16s16,7.164,16,16V279.084z M271.997,279.083
			c0,8.836-7.164,16-16,16c-8.836,0-16-7.164-16-16v-23.173c0-8.836,7.164-16,16-16c8.836,0,16,7.164,16,16V279.083z
			 M317.506,279.084c0,8.836-7.164,16-16,16c-8.836,0-16-7.164-16-16V255.91c0-8.836,7.164-16,16-16c8.836,0,16,7.164,16,16V279.084
			z"/>
	</g>
</g>
<g>
</g>
<g>
</g>
<g>
</g>
<g>
</g>
<g>
</g>
<g>
</g>
<g>
</g>
<g>
</g>
<g>
</g>
<g>
</g>
<g>
</g>
<g>
</g>
<g>
</g>
<g>
</g>
<g>
</g>
</svg>
