<?xml version="1.0" encoding="iso-8859-1"?>
<!-- Generator: Adobe Illustrator 19.0.0, SVG Export Plug-In . SVG Version: 6.00 Build 0)  -->
<svg version="1.1" id="Layer_1" xmlns="http://www.w3.org/2000/svg" xmlns:xlink="http://www.w3.org/1999/xlink" x="0px" y="0px"
	 viewBox="0 0 511.999 511.999" style="enable-background:new 0 0 511.999 511.999;" xml:space="preserve">
<g>
	<g>
		<rect x="77.912" y="170.017" width="49.33" height="134.044"/>
	</g>
</g>
<g>
	<g>
		<rect x="384.756" y="170.017" width="49.33" height="134.044"/>
	</g>
</g>
<g>
	<g>
		<path d="M381.495,152.932V0H130.503v152.932h96.364v17.082h-66.236v137.952h33.391h123.954h33.391V170.014h-66.236v-17.082
			H381.495z M217.043,93.162c-9.22,0-16.696-7.475-16.696-16.696c0-9.22,7.475-16.696,16.696-16.696
			c9.22,0,16.696,7.475,16.696,16.696C233.739,85.687,226.263,93.162,217.043,93.162z M278.26,76.466
			c0-9.22,7.475-16.696,16.696-16.696s16.696,7.475,16.696,16.696c0,9.22-7.475,16.696-16.696,16.696S278.26,85.687,278.26,76.466z"
			/>
	</g>
</g>
<g>
	<g>
		<path d="M330.948,341.357H181.05c-47.046,0-85.32,38.275-85.32,85.32c0,47.047,38.275,85.321,85.32,85.321h149.898
			c47.046,0,85.32-38.275,85.32-85.321C416.269,379.632,377.993,341.357,330.948,341.357z M203.13,460.071
			c-18.412,0-33.391-14.98-33.391-33.392s14.979-33.391,33.391-33.391c18.412,0,33.391,14.979,33.391,33.391
			S221.542,460.071,203.13,460.071z M308.869,460.071c-18.412,0-33.391-14.98-33.391-33.392s14.979-33.391,33.391-33.391
			c18.412,0,33.391,14.979,33.391,33.391S327.281,460.071,308.869,460.071z"/>
	</g>
</g>
<g>
</g>
<g>
</g>
<g>
</g>
<g>
</g>
<g>
</g>
<g>
</g>
<g>
</g>
<g>
</g>
<g>
</g>
<g>
</g>
<g>
</g>
<g>
</g>
<g>
</g>
<g>
</g>
<g>
</g>
</svg>
