<svg width="901" height="258" viewBox="0 0 901 258" fill="none" xmlns="http://www.w3.org/2000/svg">
<rect x="70.8899" y="203.552" width="45.4024" height="50.2597" fill="#C4C4C4"/>
<line y1="-0.5" x2="67.7305" y2="-0.5" transform="matrix(0.670339 0.742055 -0.626928 0.779077 70.8896 203.552)" stroke="#E0E0E0"/>
<line y1="-0.5" x2="67.7305" y2="-0.5" transform="matrix(-0.670339 0.742055 0.626928 0.779077 116.292 203.552)" stroke="#E0E0E0"/>
<rect x="872.33" y="70.026" width="27.1701" height="45.0714" fill="white" stroke="#BDBDBD"/>
<path d="M881.716 83.8136L880.5 85.0782V88.4415H879.187V78.4884H880.5V83.4103L884.922 78.4884H886.508L882.591 82.8839L886.816 88.4415H885.244L881.716 83.8136ZM889.031 81.9406C889.591 81.2524 890.321 80.9083 891.218 80.9083C892.781 80.9083 893.57 81.7902 893.584 83.5538V88.4415H892.319V83.547C892.314 83.0138 892.191 82.6196 891.95 82.3644C891.713 82.1092 891.341 81.9816 890.836 81.9816C890.425 81.9816 890.065 82.0909 889.755 82.3097C889.446 82.5284 889.204 82.8156 889.031 83.171V88.4415H887.766V77.9415H889.031V81.9406ZM882.906 100.675C882.906 99.9503 883.047 99.2986 883.33 98.7198C883.617 98.1411 884.013 97.6945 884.519 97.38C885.03 97.0656 885.611 96.9083 886.262 96.9083C887.269 96.9083 888.083 97.257 888.703 97.9542C889.327 98.6515 889.639 99.5789 889.639 100.736V100.825C889.639 101.545 889.5 102.193 889.222 102.767C888.949 103.336 888.555 103.781 888.04 104.1C887.529 104.419 886.941 104.578 886.276 104.578C885.273 104.578 884.46 104.23 883.836 103.532C883.216 102.835 882.906 101.912 882.906 100.764V100.675ZM884.177 100.825C884.177 101.646 884.366 102.304 884.745 102.801C885.127 103.298 885.638 103.546 886.276 103.546C886.919 103.546 887.429 103.295 887.807 102.794C888.185 102.288 888.375 101.582 888.375 100.675C888.375 99.8637 888.181 99.2075 887.794 98.7062C887.411 98.2003 886.9 97.9474 886.262 97.9474C885.638 97.9474 885.134 98.1958 884.752 98.6925C884.369 99.1892 884.177 99.9002 884.177 100.825Z" fill="#4F4F4F"/>
<rect x="872.33" y="170.545" width="27.1701" height="86.9546" fill="white" stroke="#BDBDBD"/>
<path d="M878.513 223.82H882.893V224.817H877.288V215.574H878.513V223.82ZM888.339 224.817C888.271 224.681 888.216 224.44 888.174 224.093C887.628 224.66 886.976 224.943 886.219 224.943C885.542 224.943 884.985 224.753 884.549 224.372C884.118 223.987 883.902 223.5 883.902 222.912C883.902 222.197 884.173 221.643 884.714 221.249C885.26 220.851 886.026 220.652 887.012 220.652H888.155V220.113C888.155 219.702 888.032 219.377 887.787 219.135C887.541 218.89 887.179 218.767 886.701 218.767C886.282 218.767 885.931 218.873 885.648 219.085C885.364 219.296 885.222 219.552 885.222 219.853H884.042C884.042 219.51 884.162 219.18 884.403 218.862C884.649 218.541 884.979 218.287 885.394 218.101C885.813 217.915 886.272 217.821 886.771 217.821C887.562 217.821 888.182 218.02 888.631 218.418C889.079 218.812 889.312 219.355 889.329 220.049V223.211C889.329 223.841 889.41 224.343 889.57 224.715V224.817H888.339ZM886.39 223.922C886.758 223.922 887.107 223.826 887.438 223.636C887.768 223.445 888.007 223.198 888.155 222.893V221.484H887.234C885.796 221.484 885.076 221.905 885.076 222.747C885.076 223.115 885.199 223.403 885.444 223.61C885.69 223.818 886.005 223.922 886.39 223.922ZM886.422 215.263H887.387L889.228 216.933H887.977L886.904 215.923L885.825 216.933H884.568L886.422 215.263ZM889.659 214.165H890.929L889.653 215.809H888.758L889.659 214.165ZM893.315 223.096L894.915 217.948H896.172L893.411 225.877C892.983 227.019 892.304 227.59 891.373 227.59L891.151 227.571L890.713 227.489V226.537L891.03 226.562C891.428 226.562 891.737 226.482 891.957 226.321C892.181 226.16 892.365 225.866 892.509 225.439L892.77 224.74L890.319 217.948H891.602L893.315 223.096ZM886.276 231.99H885.083V239.817H884.003L883.946 239.08C883.477 239.656 882.823 239.943 881.985 239.943C881.189 239.943 880.54 239.618 880.036 238.966C879.537 238.314 879.287 237.464 879.287 236.414V236.325C879.287 235.272 879.537 234.425 880.036 233.786C880.536 233.143 881.189 232.821 881.998 232.821C882.802 232.821 883.439 233.096 883.908 233.647V231.99H882.232V231.031H883.908V230.067H885.083V231.031H886.276V231.99ZM880.461 236.459C880.461 237.237 880.622 237.847 880.944 238.287C881.266 238.727 881.71 238.947 882.277 238.947C883.022 238.947 883.565 238.613 883.908 237.944V234.789C883.557 234.142 883.017 233.818 882.29 233.818C881.714 233.818 881.266 234.04 880.944 234.484C880.622 234.929 880.461 235.587 880.461 236.459ZM887.031 236.319C887.031 235.646 887.162 235.041 887.425 234.504C887.691 233.966 888.06 233.551 888.529 233.259C889.003 232.967 889.543 232.821 890.148 232.821C891.083 232.821 891.839 233.145 892.414 233.793C892.994 234.44 893.284 235.301 893.284 236.376V236.459C893.284 237.127 893.155 237.728 892.897 238.261C892.643 238.79 892.277 239.203 891.798 239.499C891.324 239.795 890.779 239.943 890.161 239.943C889.23 239.943 888.474 239.62 887.895 238.972C887.319 238.325 887.031 237.468 887.031 236.401V236.319ZM888.212 236.459C888.212 237.22 888.388 237.832 888.739 238.293C889.094 238.754 889.568 238.985 890.161 238.985C890.757 238.985 891.231 238.752 891.583 238.287C891.934 237.817 892.109 237.161 892.109 236.319C892.109 235.566 891.93 234.956 891.57 234.491C891.214 234.021 890.74 233.786 890.148 233.786C889.568 233.786 889.101 234.017 888.745 234.478C888.39 234.939 888.212 235.6 888.212 236.459ZM892.42 231.958H891.17L890.091 230.955L889.012 231.958H887.768L889.608 230.295H890.573L892.42 231.958ZM888.231 230.835H887.342L886.073 229.197H887.336L888.231 230.835Z" fill="#4F4F4F"/>
<rect x="64.7856" y="0.5" width="44.5056" height="86.9546" fill="white" stroke="#BDBDBD"/>
<mask id="path-9-inside-1" fill="white">
<path fill-rule="evenodd" clip-rule="evenodd" d="M0 0H900V204.39H899.806V243.76H900V258H824.158V253.502H115.993V204.39H0V0Z"/>
</mask>
<path d="M900 0H901V-1H900V0ZM0 0V-1H-1V0H0ZM900 204.39V205.39H901V204.39H900ZM899.806 204.39V203.39H898.806V204.39H899.806ZM899.806 243.76H898.806V244.76H899.806V243.76ZM900 243.76H901V242.76H900V243.76ZM900 258V259H901V258H900ZM824.158 258H823.158V259H824.158V258ZM824.158 253.502H825.158V252.502H824.158V253.502ZM115.993 253.502H114.993V254.502H115.993V253.502ZM115.993 204.39H116.993V203.39H115.993V204.39ZM0 204.39H-1V205.39H0V204.39ZM900 -1H0V1H900V-1ZM901 204.39V0H899V204.39H901ZM899.806 205.39H900V203.39H899.806V205.39ZM900.806 243.76V204.39H898.806V243.76H900.806ZM900 242.76H899.806V244.76H900V242.76ZM901 258V243.76H899V258H901ZM824.158 259H900V257H824.158V259ZM823.158 253.502V258H825.158V253.502H823.158ZM115.993 254.502H824.158V252.502H115.993V254.502ZM114.993 204.39V253.502H116.993V204.39H114.993ZM0 205.39H115.993V203.39H0V205.39ZM-1 0V204.39H1V0H-1Z" fill="#BDBDBD" mask="url(#path-9-inside-1)"/>
<rect x="212.859" y="0.5" width="51.7287" height="185.89" stroke="#BDBDBD"/>
<rect x="264.866" y="0.5" width="51.7287" height="185.89" stroke="#BDBDBD"/>
<rect x="368.879" y="0.5" width="51.7287" height="185.89" stroke="#BDBDBD"/>
<rect x="472.892" y="0.5" width="51.7287" height="185.89" stroke="#BDBDBD"/>
<rect x="524.898" y="0.5" width="51.7287" height="185.89" stroke="#BDBDBD"/>
<rect x="576.904" y="0.5" width="51.7287" height="185.89" stroke="#BDBDBD"/>
<rect x="628.911" y="0.5" width="51.7287" height="185.89" stroke="#BDBDBD"/>
<rect x="680.917" y="0.5" width="51.7287" height="185.89" stroke="#BDBDBD"/>
<rect x="732.924" y="0.5" width="51.7287" height="185.89" stroke="#BDBDBD"/>
<rect x="784.93" y="0.5" width="51.7287" height="185.89" stroke="#BDBDBD"/>
<rect x="886.776" y="125.398" width="12.7239" height="59.1696" fill="white" stroke="#BDBDBD"/>
<line y1="-0.5" x2="60.9818" y2="-0.5" transform="matrix(0.222492 0.974935 -0.199216 0.979956 886.432 125.614)" stroke="#BDBDBD"/>
<line y1="-0.5" x2="60.9818" y2="-0.5" transform="matrix(-0.222492 0.974935 0.199216 0.979956 900 125.614)" stroke="#BDBDBD"/>
<rect x="836.936" y="0.5" width="62.5634" height="75.5795" fill="white" stroke="#BDBDBD"/>
<path d="M854.637 21.2483V25.1448H853.325V15.1917H856.996C858.085 15.1917 858.937 15.4696 859.553 16.0256C860.172 16.5816 860.482 17.3176 860.482 18.2336C860.482 19.1998 860.179 19.9449 859.573 20.469C858.971 20.9885 858.108 21.2483 856.982 21.2483H854.637ZM854.637 20.175H856.996C857.698 20.175 858.235 20.011 858.609 19.6829C858.983 19.3502 859.17 18.8717 859.17 18.2473C859.17 17.6549 858.983 17.1809 858.609 16.8254C858.235 16.47 857.723 16.2854 857.071 16.2717H854.637V20.175ZM863.223 18.6438C863.784 17.9556 864.513 17.6116 865.411 17.6116C866.974 17.6116 867.762 18.4934 867.776 20.2571V25.1448H866.512V20.2502C866.507 19.717 866.384 19.3228 866.142 19.0676C865.905 18.8124 865.534 18.6848 865.028 18.6848C864.618 18.6848 864.258 18.7942 863.948 19.0129C863.638 19.2317 863.397 19.5188 863.223 19.8743V25.1448H861.959V14.6448H863.223V18.6438ZM869.335 21.3782C869.335 20.6536 869.476 20.0019 869.759 19.4231C870.046 18.8443 870.442 18.3977 870.948 18.0833C871.458 17.7688 872.04 17.6116 872.691 17.6116C873.698 17.6116 874.512 17.9602 875.132 18.6575C875.756 19.3547 876.068 20.2821 876.068 21.4397V21.5286C876.068 22.2486 875.929 22.8958 875.651 23.47C875.378 24.0396 874.984 24.484 874.469 24.803C873.958 25.122 873.37 25.2815 872.705 25.2815C871.702 25.2815 870.889 24.9329 870.264 24.2356C869.645 23.5383 869.335 22.6155 869.335 21.467V21.3782ZM870.606 21.5286C870.606 22.3489 870.795 23.0074 871.174 23.5042C871.556 24.0009 872.067 24.2493 872.705 24.2493C873.347 24.2493 873.858 23.9986 874.236 23.4973C874.614 22.9915 874.803 22.2851 874.803 21.3782C874.803 20.567 874.61 19.9107 874.222 19.4094C873.84 18.9036 873.329 18.6506 872.691 18.6506C872.067 18.6506 871.563 18.899 871.18 19.3958C870.798 19.8925 870.606 20.6034 870.606 21.5286ZM873.368 16.6545H872.281L870.517 14.6448H872.042L873.368 16.6545ZM878.85 17.7483L878.891 18.678C879.456 17.967 880.195 17.6116 881.106 17.6116C882.669 17.6116 883.458 18.4934 883.471 20.2571V25.1448H882.207V20.2502C882.202 19.717 882.079 19.3228 881.838 19.0676C881.601 18.8124 881.229 18.6848 880.723 18.6848C880.313 18.6848 879.953 18.7942 879.643 19.0129C879.333 19.2317 879.092 19.5188 878.919 19.8743V25.1448H877.654V17.7483H878.85ZM865.021 37.385C865.021 36.232 865.288 35.316 865.821 34.637C866.354 33.9534 867.061 33.6116 867.94 33.6116C868.843 33.6116 869.547 33.9306 870.053 34.5686L870.114 33.7483H871.269V40.967C871.269 41.9241 870.984 42.6783 870.415 43.2297C869.85 43.7812 869.089 44.0569 868.132 44.0569C867.598 44.0569 867.077 43.943 866.566 43.7151C866.056 43.4872 865.666 43.175 865.397 42.7786L866.053 42.0198C866.596 42.6897 867.259 43.0247 868.043 43.0247C868.658 43.0247 869.137 42.8515 869.478 42.5051C869.825 42.1588 869.998 41.6711 869.998 41.0422V40.4065C869.492 40.9898 868.802 41.2815 867.927 41.2815C867.061 41.2815 866.359 40.9329 865.821 40.2356C865.288 39.5383 865.021 38.5881 865.021 37.385ZM866.293 37.5286C866.293 38.3625 866.464 39.0188 866.805 39.4973C867.147 39.9713 867.626 40.2083 868.241 40.2083C869.039 40.2083 869.624 39.8459 869.998 39.1213V35.7444C869.61 35.038 869.029 34.6848 868.255 34.6848C867.639 34.6848 867.159 34.9241 866.812 35.4026C866.466 35.8811 866.293 36.5898 866.293 37.5286ZM865.732 57.1448H863.757V49.5295L861.398 50.261V48.6545L865.52 47.178H865.732V57.1448ZM874.817 53.3987H875.945V54.9915H874.817V57.1448H872.842V54.9915H868.761L868.672 53.7473L872.821 47.1917H874.817V53.3987ZM870.64 53.3987H872.842V49.885L872.712 50.1106L870.64 53.3987Z" fill="#2F80ED"/>
<path d="M76.5781 25.3721L75.3613 26.6367V30H74.0488V20.0469H75.3613V24.9688L79.7842 20.0469H81.3701L77.4531 24.4424L81.6777 30H80.1055L76.5781 25.3721ZM83.8926 23.499C84.4531 22.8109 85.1823 22.4668 86.0801 22.4668C87.6432 22.4668 88.4316 23.3486 88.4453 25.1123V30H87.1807V25.1055C87.1761 24.5723 87.0531 24.1781 86.8115 23.9229C86.5745 23.6676 86.2031 23.54 85.6973 23.54C85.2871 23.54 84.9271 23.6494 84.6172 23.8682C84.3073 24.0869 84.0658 24.374 83.8926 24.7295V30H82.6279V19.5H83.8926V23.499ZM94.9053 29.2686C94.4131 29.8473 93.6908 30.1367 92.7383 30.1367C91.9499 30.1367 91.3483 29.9089 90.9336 29.4531C90.5234 28.9928 90.3161 28.3138 90.3115 27.416V22.6035H91.5762V27.3818C91.5762 28.5029 92.0319 29.0635 92.9434 29.0635C93.9095 29.0635 94.5521 28.7035 94.8711 27.9834V22.6035H96.1357V30H94.9326L94.9053 29.2686ZM81.3428 44.2842L83.1748 38.6035H84.4668L81.8145 46H80.8506L78.1709 38.6035H79.4629L81.3428 44.2842ZM88.6572 46.1367C87.6546 46.1367 86.8389 45.8086 86.21 45.1523C85.5811 44.4915 85.2666 43.6097 85.2666 42.5068V42.2744C85.2666 41.5407 85.4056 40.8867 85.6836 40.3125C85.9661 39.7337 86.3581 39.2826 86.8594 38.959C87.3652 38.6309 87.9121 38.4668 88.5 38.4668C89.4616 38.4668 90.209 38.7835 90.7422 39.417C91.2754 40.0505 91.542 40.9574 91.542 42.1377V42.6641H86.5312C86.5495 43.3932 86.7614 43.9834 87.167 44.4346C87.5771 44.8812 88.0967 45.1045 88.7256 45.1045C89.1722 45.1045 89.5505 45.0133 89.8604 44.8311C90.1702 44.6488 90.4414 44.4072 90.6738 44.1064L91.4463 44.708C90.8265 45.6605 89.8968 46.1367 88.6572 46.1367ZM88.5 39.5059C87.9896 39.5059 87.5612 39.6927 87.2148 40.0664C86.8685 40.4355 86.6543 40.9551 86.5723 41.625H90.2773V41.5293C90.2409 40.8867 90.0677 40.39 89.7578 40.0391C89.4479 39.6836 89.0286 39.5059 88.5 39.5059ZM90.5645 37.373V37.4414H89.5186L88.4932 36.2793L87.4746 37.4414H86.4287V37.3594L88.1104 35.5H88.876L90.5645 37.373ZM87.7207 47.6748C87.7207 47.4697 87.7822 47.2965 87.9053 47.1553C88.0329 47.014 88.2197 46.9434 88.4658 46.9434C88.7119 46.9434 88.8988 47.014 89.0264 47.1553C89.154 47.2965 89.2178 47.4697 89.2178 47.6748C89.2178 47.8799 89.154 48.0508 89.0264 48.1875C88.8988 48.3242 88.7119 48.3926 88.4658 48.3926C88.2197 48.3926 88.0329 48.3242 87.9053 48.1875C87.7822 48.0508 87.7207 47.8799 87.7207 47.6748ZM77.2344 60.0381C77.2344 59.6963 77.1045 59.432 76.8447 59.2451C76.5895 59.0537 76.1406 58.8896 75.498 58.7529C74.86 58.6162 74.3519 58.4521 73.9736 58.2607C73.5999 58.0693 73.3219 57.8415 73.1396 57.5771C72.9619 57.3128 72.873 56.9984 72.873 56.6338C72.873 56.0277 73.1283 55.515 73.6387 55.0957C74.1536 54.6764 74.8099 54.4668 75.6074 54.4668C76.446 54.4668 77.125 54.6833 77.6445 55.1162C78.1686 55.5492 78.4307 56.1029 78.4307 56.7773H77.1592C77.1592 56.431 77.0111 56.1325 76.7148 55.8818C76.4232 55.6312 76.054 55.5059 75.6074 55.5059C75.1471 55.5059 74.7871 55.6061 74.5273 55.8066C74.2676 56.0072 74.1377 56.2692 74.1377 56.5928C74.1377 56.8981 74.2585 57.1283 74.5 57.2832C74.7415 57.4382 75.1768 57.5863 75.8057 57.7275C76.4391 57.8688 76.9518 58.0374 77.3438 58.2334C77.7357 58.4294 78.0251 58.6663 78.2119 58.9443C78.4033 59.2178 78.499 59.5527 78.499 59.9492C78.499 60.61 78.2347 61.141 77.7061 61.542C77.1774 61.9385 76.4915 62.1367 75.6484 62.1367C75.056 62.1367 74.5319 62.0319 74.0762 61.8223C73.6204 61.6126 73.2627 61.321 73.0029 60.9473C72.7477 60.569 72.6201 60.1611 72.6201 59.7236H73.8848C73.9076 60.1475 74.0762 60.4847 74.3906 60.7354C74.7096 60.9814 75.1289 61.1045 75.6484 61.1045C76.127 61.1045 76.5098 61.0088 76.7969 60.8174C77.0885 60.6214 77.2344 60.3617 77.2344 60.0381ZM81.5205 62H80.2559V54.6035H81.5205V62ZM80.1533 52.6416C80.1533 52.4365 80.2148 52.2633 80.3379 52.1221C80.4655 51.9808 80.6523 51.9102 80.8984 51.9102C81.1445 51.9102 81.3314 51.9808 81.459 52.1221C81.5866 52.2633 81.6504 52.4365 81.6504 52.6416C81.6504 52.8467 81.5866 53.0176 81.459 53.1543C81.3314 53.291 81.1445 53.3594 80.8984 53.3594C80.6523 53.3594 80.4655 53.291 80.3379 53.1543C80.2148 53.0176 80.1533 52.8467 80.1533 52.6416ZM84.7471 54.6035L84.7881 55.5332C85.3532 54.8223 86.0915 54.4668 87.0029 54.4668C88.5661 54.4668 89.3545 55.3486 89.3682 57.1123V62H88.1035V57.1055C88.099 56.5723 87.9759 56.1781 87.7344 55.9229C87.4974 55.6676 87.126 55.54 86.6201 55.54C86.21 55.54 85.8499 55.6494 85.54 55.8682C85.2301 56.0869 84.9886 56.374 84.8154 56.7295V62H83.5508V54.6035H84.7471ZM92.54 55.499C93.1006 54.8109 93.8298 54.4668 94.7275 54.4668C96.2907 54.4668 97.0791 55.3486 97.0928 57.1123V62H95.8281V57.1055C95.8236 56.5723 95.7005 56.1781 95.459 55.9229C95.222 55.6676 94.8506 55.54 94.3447 55.54C93.9346 55.54 93.5745 55.6494 93.2646 55.8682C92.9548 56.0869 92.7132 56.374 92.54 56.7295V62H91.2754V51.5H92.54V55.499Z" fill="#4F4F4F"/>
<rect x="1.22217" y="0.5" width="62.5634" height="75.5795" fill="#BDBDBD" stroke="#BDBDBD"/>
<line y1="-0.5" x2="98.3597" y2="-0.5" transform="matrix(0.638891 0.769297 -0.594736 0.803921 1.44434 0.911743)" stroke="#E0E0E0"/>
<line y1="-0.5" x2="98.3597" y2="-0.5" transform="matrix(-0.638891 0.769297 0.594736 0.803921 64.2856 0.911743)" stroke="#E0E0E0"/>
<path d="M29.2215 30.8446C29.1213 31.9065 28.7294 32.7359 28.0458 33.3329C27.3622 33.9253 26.453 34.2216 25.3182 34.2216C24.5253 34.2216 23.8257 34.0347 23.2196 33.661C22.618 33.2828 22.1532 32.7473 21.8251 32.0546C21.4969 31.3619 21.326 30.5575 21.3124 29.6415V28.7118C21.3124 27.773 21.4787 26.9458 21.8114 26.2303C22.1441 25.5149 22.6203 24.9634 23.2401 24.576C23.8644 24.1887 24.5845 23.995 25.4003 23.995C26.4986 23.995 27.3827 24.2935 28.0526 24.8905C28.7225 25.4875 29.1122 26.3306 29.2215 27.4198H27.4989C27.4169 26.7043 27.2072 26.1893 26.87 25.8749C26.5373 25.5559 26.0474 25.3964 25.4003 25.3964C24.6483 25.3964 24.0695 25.6721 23.6639 26.2235C23.2629 26.7704 23.0578 27.5747 23.0487 28.6366V29.5184C23.0487 30.594 23.2401 31.4143 23.6229 31.9794C24.0103 32.5445 24.5754 32.827 25.3182 32.827C25.9973 32.827 26.5077 32.6744 26.8495 32.369C27.1913 32.0637 27.4077 31.5555 27.4989 30.8446H29.2215ZM35.0321 34.0848C34.9592 33.9436 34.8954 33.7134 34.8407 33.3944C34.312 33.9458 33.6649 34.2216 32.8993 34.2216C32.1564 34.2216 31.5503 34.0096 31.0809 33.5858C30.6115 33.162 30.3768 32.6379 30.3768 32.0135C30.3768 31.2251 30.6685 30.6213 31.2518 30.202C31.8397 29.7782 32.6782 29.5663 33.7674 29.5663H34.786V29.0809C34.786 28.6981 34.6789 28.3928 34.4647 28.1649C34.2505 27.9325 33.9247 27.8163 33.4872 27.8163C33.1089 27.8163 32.799 27.912 32.5575 28.1034C32.3159 28.2902 32.1952 28.5295 32.1952 28.8212H30.534C30.534 28.4156 30.6685 28.0373 30.9374 27.6864C31.2062 27.3309 31.5708 27.0529 32.0311 26.8524C32.496 26.6519 33.0132 26.5516 33.5829 26.5516C34.4488 26.5516 35.1392 26.7704 35.6542 27.2079C36.1691 27.6408 36.4335 28.2515 36.4471 29.0399V32.3759C36.4471 33.0412 36.5406 33.5721 36.7274 33.9686V34.0848H35.0321ZM33.2069 32.8885C33.535 32.8885 33.8426 32.8088 34.1297 32.6493C34.4214 32.4898 34.6402 32.2756 34.786 32.0067V30.6122H33.8905C33.2753 30.6122 32.8127 30.7193 32.5028 30.9335C32.1929 31.1477 32.0379 31.4507 32.0379 31.8427C32.0379 32.1617 32.1428 32.4169 32.3524 32.6083C32.5666 32.7951 32.8514 32.8885 33.2069 32.8885ZM36.1737 25.663H34.7176L33.6307 24.6923L32.5438 25.663H31.0946L33.0838 23.954H34.1844L36.1737 25.663ZM31.6073 24.5829H30.534L29.0643 22.7577H30.5751L31.6073 24.5829ZM42.6678 33.3602C42.1802 33.9344 41.4875 34.2216 40.5897 34.2216C39.7876 34.2216 39.1792 33.9869 38.7645 33.5175C38.3544 33.0481 38.1493 32.369 38.1493 31.4803V26.6884H39.8104V31.4598C39.8104 32.3986 40.2001 32.868 40.9794 32.868C41.786 32.868 42.3306 32.5787 42.6131 31.9999V26.6884H44.2743V34.0848H42.7088L42.6678 33.3602ZM17.9217 40.8905V42.6884H19.2274V43.9188H17.9217V48.0477C17.9217 48.3303 17.9764 48.5354 18.0858 48.663C18.1997 48.786 18.4003 48.8475 18.6874 48.8475C18.8788 48.8475 19.0725 48.8247 19.2684 48.7792V50.0643C18.8902 50.1691 18.5256 50.2216 18.1747 50.2216C16.8986 50.2216 16.2606 49.5175 16.2606 48.1093V43.9188H15.0438V42.6884H16.2606V40.8905H17.9217ZM22.1395 43.495C22.6818 42.8661 23.3677 42.5516 24.1971 42.5516C25.7739 42.5516 26.5738 43.4517 26.5965 45.2518V50.0848H24.9354V45.3134C24.9354 44.8029 24.8238 44.4429 24.6004 44.2333C24.3817 44.0191 24.0581 43.912 23.6297 43.912C22.9644 43.912 22.4676 44.2082 22.1395 44.8007V50.0848H20.4784V39.5848H22.1395V43.495ZM32.701 50.0848C32.6281 49.9436 32.5643 49.7134 32.5096 49.3944C31.981 49.9458 31.3338 50.2216 30.5682 50.2216C29.8254 50.2216 29.2193 50.0096 28.7499 49.5858C28.2805 49.162 28.0458 48.6379 28.0458 48.0135C28.0458 47.2251 28.3374 46.6213 28.9208 46.202C29.5086 45.7782 30.3472 45.5663 31.4364 45.5663H32.4549V45.0809C32.4549 44.6981 32.3478 44.3928 32.1336 44.1649C31.9195 43.9325 31.5936 43.8163 31.1561 43.8163C30.7779 43.8163 30.468 43.912 30.2264 44.1034C29.9849 44.2902 29.8641 44.5295 29.8641 44.8212H28.203C28.203 44.4156 28.3374 44.0373 28.6063 43.6864C28.8752 43.3309 29.2398 43.0529 29.7001 42.8524C30.1649 42.6519 30.6822 42.5516 31.2518 42.5516C32.1177 42.5516 32.8081 42.7704 33.3231 43.2079C33.8381 43.6408 34.1024 44.2515 34.1161 45.0399V48.3759C34.1161 49.0412 34.2095 49.5721 34.3963 49.9686V50.0848H32.701ZM30.8758 48.8885C31.204 48.8885 31.5116 48.8088 31.7987 48.6493C32.0904 48.4898 32.3091 48.2756 32.4549 48.0067V46.6122H31.5594C30.9442 46.6122 30.4816 46.7193 30.1717 46.9335C29.8618 47.1477 29.7069 47.4507 29.7069 47.8427C29.7069 48.1617 29.8117 48.4169 30.0213 48.6083C30.2355 48.7951 30.5204 48.8885 30.8758 48.8885ZM37.3973 42.6884L37.4452 43.5428C37.992 42.882 38.7098 42.5516 39.5985 42.5516C41.1389 42.5516 41.9227 43.4335 41.9501 45.1971V50.0848H40.2889V45.2928C40.2889 44.8234 40.1864 44.4771 39.9813 44.2538C39.7808 44.0259 39.4504 43.912 38.9901 43.912C38.3202 43.912 37.8211 44.215 37.493 44.8212V50.0848H35.8319V42.6884H37.3973ZM43.3583 46.3319C43.3583 45.1835 43.6271 44.2675 44.1649 43.5839C44.7072 42.8957 45.425 42.5516 46.3182 42.5516C47.1613 42.5516 47.8244 42.8456 48.3075 43.4335L48.3827 42.6884H49.8797V49.8593C49.8797 50.83 49.5767 51.5956 48.9706 52.1561C48.369 52.7167 47.5555 52.9969 46.5301 52.9969C45.9878 52.9969 45.4569 52.883 44.9374 52.6552C44.4224 52.4318 44.0305 52.1379 43.7616 51.7733L44.5477 50.7753C45.0581 51.3814 45.687 51.6844 46.4344 51.6844C46.9859 51.6844 47.4211 51.5341 47.7401 51.2333C48.0591 50.9371 48.2186 50.4996 48.2186 49.9208V49.4218C47.7401 49.955 47.1021 50.2216 46.3046 50.2216C45.4387 50.2216 44.73 49.8775 44.1786 49.1893C43.6317 48.5012 43.3583 47.5487 43.3583 46.3319ZM45.0126 46.4755C45.0126 47.2183 45.1629 47.8039 45.4637 48.2323C45.7691 48.6561 46.1906 48.868 46.7284 48.868C47.3983 48.868 47.895 48.5809 48.2186 48.0067V44.7528C47.9042 44.1923 47.412 43.912 46.7421 43.912C46.1952 43.912 45.7691 44.1285 45.4637 44.5614C45.1629 44.9943 45.0126 45.6324 45.0126 46.4755Z" fill="white"/>
<rect x="161.641" y="0.5" width="51.0064" height="185.89" fill="#BDBDBD" stroke="#BDBDBD"/>
<line y1="-0.5" x2="191.69" y2="-0.5" transform="matrix(0.268222 0.963357 -0.240726 0.970593 160.944 2.22498)" stroke="#E0E0E0"/>
<line y1="-0.5" x2="191.69" y2="-0.5" transform="matrix(-0.268222 0.963357 0.240726 0.970593 212.359 2.22498)" stroke="#E0E0E0"/>
<path d="M173.924 85.6602V89H172.799V80.4688H175.945C176.879 80.4688 177.609 80.707 178.137 81.1836C178.668 81.6602 178.934 82.291 178.934 83.0762C178.934 83.9043 178.674 84.543 178.154 84.9922C177.639 85.4375 176.898 85.6602 175.934 85.6602H173.924ZM173.924 84.7402H175.945C176.547 84.7402 177.008 84.5996 177.328 84.3184C177.648 84.0332 177.809 83.623 177.809 83.0879C177.809 82.5801 177.648 82.1738 177.328 81.8691C177.008 81.5645 176.568 81.4062 176.01 81.3945H173.924V84.7402ZM181.283 83.4277C181.764 82.8379 182.389 82.543 183.158 82.543C184.498 82.543 185.174 83.2988 185.186 84.8105V89H184.102V84.8047C184.098 84.3477 183.992 84.0098 183.785 83.791C183.582 83.5723 183.264 83.4629 182.83 83.4629C182.479 83.4629 182.17 83.5566 181.904 83.7441C181.639 83.9316 181.432 84.1777 181.283 84.4824V89H180.199V80H181.283V83.4277ZM186.521 85.7715C186.521 85.1504 186.643 84.5918 186.885 84.0957C187.131 83.5996 187.471 83.2168 187.904 82.9473C188.342 82.6777 188.84 82.543 189.398 82.543C190.262 82.543 190.959 82.8418 191.49 83.4395C192.025 84.0371 192.293 84.832 192.293 85.8242V85.9004C192.293 86.5176 192.174 87.0723 191.936 87.5645C191.701 88.0527 191.363 88.4336 190.922 88.707C190.484 88.9805 189.98 89.1172 189.41 89.1172C188.551 89.1172 187.854 88.8184 187.318 88.2207C186.787 87.623 186.521 86.832 186.521 85.8477V85.7715ZM187.611 85.9004C187.611 86.6035 187.773 87.168 188.098 87.5938C188.426 88.0195 188.863 88.2324 189.41 88.2324C189.961 88.2324 190.398 88.0176 190.723 87.5879C191.047 87.1543 191.209 86.5488 191.209 85.7715C191.209 85.0762 191.043 84.5137 190.711 84.084C190.383 83.6504 189.945 83.4336 189.398 83.4336C188.863 83.4336 188.432 83.6465 188.104 84.0723C187.775 84.498 187.611 85.1074 187.611 85.9004ZM189.979 81.7227H189.047L187.535 80H188.842L189.979 81.7227ZM194.678 82.6602L194.713 83.457C195.197 82.8477 195.83 82.543 196.611 82.543C197.951 82.543 198.627 83.2988 198.639 84.8105V89H197.555V84.8047C197.551 84.3477 197.445 84.0098 197.238 83.791C197.035 83.5723 196.717 83.4629 196.283 83.4629C195.932 83.4629 195.623 83.5566 195.357 83.7441C195.092 83.9316 194.885 84.1777 194.736 84.4824V89H193.652V82.6602H194.678ZM200.016 85.7773C200.016 84.7891 200.244 84.0039 200.701 83.4219C201.158 82.8359 201.764 82.543 202.518 82.543C203.291 82.543 203.895 82.8164 204.328 83.3633L204.381 82.6602H205.371V88.8477C205.371 89.668 205.127 90.3145 204.639 90.7871C204.154 91.2598 203.502 91.4961 202.682 91.4961C202.225 91.4961 201.777 91.3984 201.34 91.2031C200.902 91.0078 200.568 90.7402 200.338 90.4004L200.9 89.75C201.365 90.3242 201.934 90.6113 202.605 90.6113C203.133 90.6113 203.543 90.4629 203.836 90.166C204.133 89.8691 204.281 89.4512 204.281 88.9121V88.3672C203.848 88.8672 203.256 89.1172 202.506 89.1172C201.764 89.1172 201.162 88.8184 200.701 88.2207C200.244 87.623 200.016 86.8086 200.016 85.7773ZM201.105 85.9004C201.105 86.6152 201.252 87.1777 201.545 87.5879C201.838 87.9941 202.248 88.1973 202.775 88.1973C203.459 88.1973 203.961 87.8867 204.281 87.2656V84.3711C203.949 83.7656 203.451 83.4629 202.787 83.4629C202.26 83.4629 201.848 83.668 201.551 84.0781C201.254 84.4883 201.105 85.0957 201.105 85.9004ZM190.248 103H188.555V96.4727L186.533 97.0996V95.7227L190.066 94.457H190.248V103Z" fill="white"/>
<rect x="316.872" y="0.5" width="51.0064" height="185.89" fill="#BDBDBD" stroke="#BDBDBD"/>
<line y1="-0.5" x2="191.69" y2="-0.5" transform="matrix(0.268222 0.963357 -0.240726 0.970593 316.963 2.22498)" stroke="#E0E0E0"/>
<line y1="-0.5" x2="191.69" y2="-0.5" transform="matrix(-0.268222 0.963357 0.240726 0.970593 368.379 2.22498)" stroke="#E0E0E0"/>
<path d="M327.923 87.593V90.9329H326.798V82.4016H329.945C330.878 82.4016 331.609 82.6399 332.136 83.1165C332.667 83.593 332.933 84.2239 332.933 85.009C332.933 85.8372 332.673 86.4758 332.154 86.925C331.638 87.3704 330.898 87.593 329.933 87.593H327.923ZM327.923 86.6731H329.945C330.546 86.6731 331.007 86.5325 331.327 86.2512C331.648 85.9661 331.808 85.5559 331.808 85.0208C331.808 84.5129 331.648 84.1067 331.327 83.802C331.007 83.4973 330.568 83.3391 330.009 83.3274H327.923V86.6731ZM335.283 85.3606C335.763 84.7708 336.388 84.4758 337.158 84.4758C338.497 84.4758 339.173 85.2317 339.185 86.7434V90.9329H338.101V86.7375C338.097 86.2805 337.991 85.9426 337.784 85.7239C337.581 85.5051 337.263 85.3958 336.829 85.3958C336.478 85.3958 336.169 85.4895 335.904 85.677C335.638 85.8645 335.431 86.1106 335.283 86.4153V90.9329H334.199V81.9329H335.283V85.3606ZM340.521 87.7043C340.521 87.0833 340.642 86.5247 340.884 86.0286C341.13 85.5325 341.47 85.1497 341.904 84.8801C342.341 84.6106 342.839 84.4758 343.398 84.4758C344.261 84.4758 344.958 84.7747 345.49 85.3723C346.025 85.97 346.292 86.7649 346.292 87.7571V87.8333C346.292 88.4504 346.173 89.0051 345.935 89.4973C345.7 89.9856 345.363 90.3665 344.921 90.6399C344.484 90.9133 343.98 91.05 343.409 91.05C342.55 91.05 341.853 90.7512 341.318 90.1536C340.786 89.5559 340.521 88.7649 340.521 87.7805V87.7043ZM341.611 87.8333C341.611 88.5364 341.773 89.1008 342.097 89.5266C342.425 89.9524 342.863 90.1653 343.409 90.1653C343.96 90.1653 344.398 89.9504 344.722 89.5208C345.046 89.0872 345.208 88.4817 345.208 87.7043C345.208 87.009 345.042 86.4465 344.71 86.0168C344.382 85.5833 343.945 85.3665 343.398 85.3665C342.863 85.3665 342.431 85.5793 342.103 86.0051C341.775 86.4309 341.611 87.0403 341.611 87.8333ZM343.978 83.6555H343.046L341.534 81.9329H342.841L343.978 83.6555ZM348.677 84.593L348.712 85.3899C349.197 84.7805 349.829 84.4758 350.611 84.4758C351.95 84.4758 352.626 85.2317 352.638 86.7434V90.9329H351.554V86.7375C351.55 86.2805 351.445 85.9426 351.238 85.7239C351.034 85.5051 350.716 85.3958 350.283 85.3958C349.931 85.3958 349.622 85.4895 349.357 85.677C349.091 85.8645 348.884 86.1106 348.736 86.4153V90.9329H347.652V84.593H348.677ZM354.015 87.7102C354.015 86.7219 354.243 85.9368 354.7 85.3547C355.158 84.7688 355.763 84.4758 356.517 84.4758C357.29 84.4758 357.894 84.7493 358.327 85.2961L358.38 84.593H359.37V90.7805C359.37 91.6008 359.126 92.2473 358.638 92.72C358.154 93.1926 357.501 93.429 356.681 93.429C356.224 93.429 355.777 93.3313 355.339 93.136C354.902 92.9407 354.568 92.6731 354.337 92.3333L354.9 91.6829C355.365 92.2571 355.933 92.5442 356.605 92.5442C357.132 92.5442 357.542 92.3958 357.835 92.0989C358.132 91.802 358.281 91.384 358.281 90.845V90.3C357.847 90.8 357.255 91.05 356.505 91.05C355.763 91.05 355.161 90.7512 354.7 90.1536C354.243 89.5559 354.015 88.7415 354.015 87.7102ZM355.105 87.8333C355.105 88.5481 355.251 89.1106 355.544 89.5208C355.837 89.927 356.247 90.1301 356.775 90.1301C357.458 90.1301 357.96 89.8196 358.281 89.1985V86.304C357.949 85.6985 357.45 85.3958 356.786 85.3958C356.259 85.3958 355.847 85.6008 355.55 86.011C355.253 86.4211 355.105 87.0286 355.105 87.8333ZM345.144 101.722H346.111V103.087H345.144V104.933H343.45V103.087H339.952L339.876 102.021L343.433 96.4016H345.144V101.722ZM341.564 101.722H343.45V98.7102L343.339 98.9036L341.564 101.722Z" fill="white"/>
<rect x="421.607" y="0.5" width="51.0064" height="185.89" fill="#BDBDBD" stroke="#BDBDBD"/>
<line y1="-0.5" x2="191.69" y2="-0.5" transform="matrix(0.268222 0.963357 -0.240726 0.970593 421.699 2.22498)" stroke="#E0E0E0"/>
<line y1="-0.5" x2="191.69" y2="-0.5" transform="matrix(-0.268222 0.963357 0.240726 0.970593 473.114 2.22498)" stroke="#E0E0E0"/>
<path d="M432.658 87.593V90.9329H431.533V82.4016H434.68C435.613 82.4016 436.344 82.6399 436.871 83.1165C437.402 83.593 437.668 84.2239 437.668 85.009C437.668 85.8372 437.408 86.4758 436.889 86.925C436.373 87.3704 435.633 87.593 434.668 87.593H432.658ZM432.658 86.6731H434.68C435.281 86.6731 435.742 86.5325 436.063 86.2512C436.383 85.9661 436.543 85.5559 436.543 85.0208C436.543 84.5129 436.383 84.1067 436.063 83.802C435.742 83.4973 435.303 83.3391 434.744 83.3274H432.658V86.6731ZM440.018 85.3606C440.498 84.7708 441.123 84.4758 441.893 84.4758C443.232 84.4758 443.908 85.2317 443.92 86.7434V90.9329H442.836V86.7375C442.832 86.2805 442.727 85.9426 442.52 85.7239C442.316 85.5051 441.998 85.3958 441.564 85.3958C441.213 85.3958 440.904 85.4895 440.639 85.677C440.373 85.8645 440.166 86.1106 440.018 86.4153V90.9329H438.934V81.9329H440.018V85.3606ZM445.256 87.7043C445.256 87.0833 445.377 86.5247 445.619 86.0286C445.865 85.5325 446.205 85.1497 446.639 84.8801C447.076 84.6106 447.574 84.4758 448.133 84.4758C448.996 84.4758 449.693 84.7747 450.225 85.3723C450.76 85.97 451.027 86.7649 451.027 87.7571V87.8333C451.027 88.4504 450.908 89.0051 450.67 89.4973C450.436 89.9856 450.098 90.3665 449.656 90.6399C449.219 90.9133 448.715 91.05 448.145 91.05C447.285 91.05 446.588 90.7512 446.053 90.1536C445.522 89.5559 445.256 88.7649 445.256 87.7805V87.7043ZM446.346 87.8333C446.346 88.5364 446.508 89.1008 446.832 89.5266C447.16 89.9524 447.598 90.1653 448.145 90.1653C448.695 90.1653 449.133 89.9504 449.457 89.5208C449.781 89.0872 449.943 88.4817 449.943 87.7043C449.943 87.009 449.777 86.4465 449.445 86.0168C449.117 85.5833 448.68 85.3665 448.133 85.3665C447.598 85.3665 447.166 85.5793 446.838 86.0051C446.51 86.4309 446.346 87.0403 446.346 87.8333ZM448.713 83.6555H447.781L446.27 81.9329H447.576L448.713 83.6555ZM453.412 84.593L453.447 85.3899C453.932 84.7805 454.564 84.4758 455.346 84.4758C456.686 84.4758 457.361 85.2317 457.373 86.7434V90.9329H456.289V86.7375C456.285 86.2805 456.18 85.9426 455.973 85.7239C455.77 85.5051 455.451 85.3958 455.018 85.3958C454.666 85.3958 454.357 85.4895 454.092 85.677C453.826 85.8645 453.619 86.1106 453.471 86.4153V90.9329H452.387V84.593H453.412ZM458.75 87.7102C458.75 86.7219 458.979 85.9368 459.436 85.3547C459.893 84.7688 460.498 84.4758 461.252 84.4758C462.025 84.4758 462.629 84.7493 463.063 85.2961L463.115 84.593H464.106V90.7805C464.106 91.6008 463.861 92.2473 463.373 92.72C462.889 93.1926 462.236 93.429 461.416 93.429C460.959 93.429 460.512 93.3313 460.074 93.136C459.637 92.9407 459.303 92.6731 459.072 92.3333L459.635 91.6829C460.1 92.2571 460.668 92.5442 461.34 92.5442C461.867 92.5442 462.277 92.3958 462.57 92.0989C462.867 91.802 463.016 91.384 463.016 90.845V90.3C462.582 90.8 461.99 91.05 461.24 91.05C460.498 91.05 459.897 90.7512 459.436 90.1536C458.979 89.5559 458.75 88.7415 458.75 87.7102ZM459.84 87.8333C459.84 88.5481 459.986 89.1106 460.279 89.5208C460.572 89.927 460.982 90.1301 461.51 90.1301C462.193 90.1301 462.695 89.8196 463.016 89.1985V86.304C462.684 85.6985 462.186 85.3958 461.522 85.3958C460.994 85.3958 460.582 85.6008 460.285 86.011C459.988 86.4211 459.84 87.0286 459.84 87.8333ZM449.463 96.3137V97.7083H449.299C448.533 97.72 447.916 97.9192 447.447 98.3059C446.982 98.6926 446.703 99.2297 446.609 99.9172C447.063 99.4563 447.635 99.2258 448.326 99.2258C449.068 99.2258 449.658 99.4915 450.096 100.023C450.533 100.554 450.752 101.253 450.752 102.12C450.752 102.675 450.631 103.177 450.389 103.626C450.15 104.075 449.811 104.425 449.369 104.675C448.932 104.925 448.436 105.05 447.881 105.05C446.982 105.05 446.256 104.738 445.701 104.113C445.15 103.488 444.875 102.654 444.875 101.611V101.001C444.875 100.075 445.049 99.259 445.397 98.552C445.748 97.8411 446.25 97.2922 446.902 96.9055C447.559 96.5149 448.318 96.3176 449.182 96.3137H449.463ZM447.811 100.585C447.537 100.585 447.289 100.657 447.066 100.802C446.844 100.943 446.68 101.13 446.574 101.365V101.88C446.574 102.447 446.686 102.89 446.908 103.21C447.131 103.527 447.443 103.685 447.846 103.685C448.209 103.685 448.502 103.542 448.725 103.257C448.951 102.968 449.064 102.595 449.064 102.138C449.064 101.673 448.951 101.298 448.725 101.013C448.498 100.728 448.193 100.585 447.811 100.585Z" fill="white"/>
<path d="M223.91 86.7682V90.108H222.785V81.5768H225.931C226.865 81.5768 227.596 81.8151 228.123 82.2916C228.654 82.7682 228.92 83.399 228.92 84.1842C228.92 85.0123 228.66 85.651 228.14 86.1002C227.625 86.5455 226.885 86.7682 225.92 86.7682H223.91ZM223.91 85.8483H225.931C226.533 85.8483 226.994 85.7076 227.314 85.4264C227.635 85.1412 227.795 84.7311 227.795 84.1959C227.795 83.6881 227.635 83.2819 227.314 82.9772C226.994 82.6725 226.554 82.5143 225.996 82.5026H223.91V85.8483ZM231.269 84.5358C231.75 83.9459 232.375 83.651 233.144 83.651C234.484 83.651 235.16 84.4069 235.172 85.9186V90.108H234.088V85.9127C234.084 85.4557 233.978 85.1178 233.771 84.899C233.568 84.6803 233.25 84.5709 232.816 84.5709C232.465 84.5709 232.156 84.6647 231.89 84.8522C231.625 85.0397 231.418 85.2858 231.269 85.5905V90.108H230.185V81.108H231.269V84.5358ZM236.508 86.8795C236.508 86.2584 236.629 85.6998 236.871 85.2037C237.117 84.7076 237.457 84.3248 237.89 84.0553C238.328 83.7858 238.826 83.651 239.385 83.651C240.248 83.651 240.945 83.9498 241.476 84.5475C242.012 85.1451 242.279 85.9401 242.279 86.9323V87.0084C242.279 87.6256 242.16 88.1803 241.922 88.6725C241.687 89.1608 241.349 89.5416 240.908 89.8151C240.471 90.0885 239.967 90.2252 239.396 90.2252C238.537 90.2252 237.84 89.9264 237.304 89.3287C236.773 88.7311 236.508 87.9401 236.508 86.9557V86.8795ZM237.597 87.0084C237.597 87.7115 237.76 88.276 238.084 88.7018C238.412 89.1276 238.849 89.3405 239.396 89.3405C239.947 89.3405 240.385 89.1256 240.709 88.6959C241.033 88.2623 241.195 87.6569 241.195 86.8795C241.195 86.1842 241.029 85.6217 240.697 85.192C240.369 84.7584 239.931 84.5416 239.385 84.5416C238.849 84.5416 238.418 84.7545 238.09 85.1803C237.762 85.6061 237.597 86.2155 237.597 87.0084ZM239.965 82.8307H239.033L237.521 81.108H238.828L239.965 82.8307ZM244.664 83.7682L244.699 84.5651C245.183 83.9557 245.816 83.651 246.597 83.651C247.937 83.651 248.613 84.4069 248.625 85.9186V90.108H247.541V85.9127C247.537 85.4557 247.431 85.1178 247.224 84.899C247.021 84.6803 246.703 84.5709 246.269 84.5709C245.918 84.5709 245.609 84.6647 245.344 84.8522C245.078 85.0397 244.871 85.2858 244.722 85.5905V90.108H243.638V83.7682H244.664ZM250.002 86.8854C250.002 85.8971 250.23 85.1119 250.687 84.5299C251.144 83.944 251.75 83.651 252.504 83.651C253.277 83.651 253.881 83.9244 254.314 84.4713L254.367 83.7682H255.357V89.9557C255.357 90.776 255.113 91.4225 254.625 91.8951C254.14 92.3678 253.488 92.6041 252.668 92.6041C252.211 92.6041 251.763 92.5065 251.326 92.3112C250.888 92.1158 250.554 91.8483 250.324 91.5084L250.887 90.858C251.351 91.4323 251.92 91.7194 252.592 91.7194C253.119 91.7194 253.529 91.5709 253.822 91.274C254.119 90.9772 254.267 90.5592 254.267 90.0201V89.4752C253.834 89.9752 253.242 90.2252 252.492 90.2252C251.75 90.2252 251.148 89.9264 250.687 89.3287C250.23 88.7311 250.002 87.9166 250.002 86.8854ZM251.092 87.0084C251.092 87.7233 251.238 88.2858 251.531 88.6959C251.824 89.1022 252.234 89.3053 252.762 89.3053C253.445 89.3053 253.947 88.9948 254.267 88.3737V85.4791C253.935 84.8737 253.437 84.5709 252.773 84.5709C252.246 84.5709 251.834 84.776 251.537 85.1862C251.24 85.5963 251.092 86.2037 251.092 87.0084ZM241.969 104.108H236.121V102.948L238.881 100.006C239.26 99.5924 239.539 99.2311 239.719 98.9225C239.902 98.6139 239.994 98.3209 239.994 98.0436C239.994 97.6647 239.898 97.3678 239.707 97.153C239.515 96.9342 239.242 96.8248 238.887 96.8248C238.504 96.8248 238.201 96.9576 237.978 97.2233C237.76 97.485 237.65 97.8307 237.65 98.2604H235.951C235.951 97.7408 236.074 97.2662 236.32 96.8365C236.57 96.4069 236.922 96.0709 237.375 95.8287C237.828 95.5826 238.342 95.4596 238.916 95.4596C239.795 95.4596 240.476 95.6705 240.961 96.0924C241.449 96.5143 241.693 97.11 241.693 97.8795C241.693 98.3014 241.584 98.7311 241.365 99.1686C241.146 99.6061 240.771 100.116 240.24 100.698L238.301 102.743H241.969V104.108Z" fill="#2F80ED"/>
<path d="M275.917 86.7682V90.108H274.792V81.5768H277.938C278.872 81.5768 279.602 81.8151 280.129 82.2916C280.661 82.7682 280.926 83.399 280.926 84.1842C280.926 85.0123 280.667 85.651 280.147 86.1002C279.631 86.5455 278.891 86.7682 277.926 86.7682H275.917ZM275.917 85.8483H277.938C278.54 85.8483 279.001 85.7076 279.321 85.4264C279.641 85.1412 279.801 84.7311 279.801 84.1959C279.801 83.6881 279.641 83.2819 279.321 82.9772C279.001 82.6725 278.561 82.5143 278.002 82.5026H275.917V85.8483ZM283.276 84.5358C283.756 83.9459 284.381 83.651 285.151 83.651C286.491 83.651 287.167 84.4069 287.178 85.9186V90.108H286.094V85.9127C286.09 85.4557 285.985 85.1178 285.778 84.899C285.575 84.6803 285.256 84.5709 284.823 84.5709C284.471 84.5709 284.163 84.6647 283.897 84.8522C283.631 85.0397 283.424 85.2858 283.276 85.5905V90.108H282.192V81.108H283.276V84.5358ZM288.514 86.8795C288.514 86.2584 288.635 85.6998 288.877 85.2037C289.124 84.7076 289.463 84.3248 289.897 84.0553C290.335 83.7858 290.833 83.651 291.391 83.651C292.254 83.651 292.952 83.9498 293.483 84.5475C294.018 85.1451 294.286 85.9401 294.286 86.9323V87.0084C294.286 87.6256 294.167 88.1803 293.928 88.6725C293.694 89.1608 293.356 89.5416 292.915 89.8151C292.477 90.0885 291.973 90.2252 291.403 90.2252C290.543 90.2252 289.846 89.9264 289.311 89.3287C288.78 88.7311 288.514 87.9401 288.514 86.9557V86.8795ZM289.604 87.0084C289.604 87.7115 289.766 88.276 290.09 88.7018C290.418 89.1276 290.856 89.3405 291.403 89.3405C291.954 89.3405 292.391 89.1256 292.715 88.6959C293.04 88.2623 293.202 87.6569 293.202 86.8795C293.202 86.1842 293.036 85.6217 292.704 85.192C292.376 84.7584 291.938 84.5416 291.391 84.5416C290.856 84.5416 290.424 84.7545 290.096 85.1803C289.768 85.6061 289.604 86.2155 289.604 87.0084ZM291.971 82.8307H291.04L289.528 81.108H290.835L291.971 82.8307ZM296.67 83.7682L296.706 84.5651C297.19 83.9557 297.823 83.651 298.604 83.651C299.944 83.651 300.62 84.4069 300.631 85.9186V90.108H299.547V85.9127C299.543 85.4557 299.438 85.1178 299.231 84.899C299.028 84.6803 298.71 84.5709 298.276 84.5709C297.924 84.5709 297.616 84.6647 297.35 84.8522C297.085 85.0397 296.877 85.2858 296.729 85.5905V90.108H295.645V83.7682H296.67ZM302.008 86.8854C302.008 85.8971 302.237 85.1119 302.694 84.5299C303.151 83.944 303.756 83.651 304.51 83.651C305.284 83.651 305.887 83.9244 306.321 84.4713L306.374 83.7682H307.364V89.9557C307.364 90.776 307.12 91.4225 306.631 91.8951C306.147 92.3678 305.495 92.6041 304.674 92.6041C304.217 92.6041 303.77 92.5065 303.333 92.3112C302.895 92.1158 302.561 91.8483 302.331 91.5084L302.893 90.858C303.358 91.4323 303.926 91.7194 304.598 91.7194C305.126 91.7194 305.536 91.5709 305.829 91.274C306.126 90.9772 306.274 90.5592 306.274 90.0201V89.4752C305.84 89.9752 305.249 90.2252 304.499 90.2252C303.756 90.2252 303.155 89.9264 302.694 89.3287C302.237 88.7311 302.008 87.9166 302.008 86.8854ZM303.098 87.0084C303.098 87.7233 303.245 88.2858 303.538 88.6959C303.831 89.1022 304.241 89.3053 304.768 89.3053C305.452 89.3053 305.954 88.9948 306.274 88.3737V85.4791C305.942 84.8737 305.444 84.5709 304.78 84.5709C304.252 84.5709 303.84 84.776 303.543 85.1862C303.247 85.5963 303.098 86.2037 303.098 87.0084ZM289.85 99.0924H290.752C291.182 99.0924 291.501 98.985 291.708 98.7701C291.915 98.5553 292.018 98.2701 292.018 97.9147C292.018 97.5709 291.915 97.3033 291.708 97.1119C291.504 96.9205 291.223 96.8248 290.864 96.8248C290.54 96.8248 290.268 96.9147 290.049 97.0944C289.831 97.2701 289.721 97.5006 289.721 97.7858H288.028C288.028 97.3405 288.147 96.942 288.385 96.5905C288.627 96.235 288.963 95.9576 289.393 95.7584C289.827 95.5592 290.303 95.4596 290.823 95.4596C291.725 95.4596 292.432 95.6764 292.944 96.11C293.456 96.5397 293.711 97.1334 293.711 97.8912C293.711 98.2819 293.592 98.6412 293.354 98.9694C293.116 99.2975 292.803 99.5494 292.417 99.7252C292.897 99.8971 293.254 100.155 293.489 100.499C293.727 100.842 293.846 101.249 293.846 101.717C293.846 102.475 293.569 103.083 293.014 103.54C292.463 103.997 291.733 104.225 290.823 104.225C289.971 104.225 289.274 104.001 288.731 103.551C288.192 103.102 287.922 102.508 287.922 101.77H289.616C289.616 102.09 289.735 102.352 289.973 102.555C290.215 102.758 290.512 102.86 290.864 102.86C291.266 102.86 291.581 102.755 291.807 102.544C292.038 102.329 292.153 102.046 292.153 101.694C292.153 100.842 291.684 100.417 290.747 100.417H289.85V99.0924Z" fill="#2F80ED"/>
<path d="M379.929 86.7682V90.108H378.804V81.5768H381.951C382.885 81.5768 383.615 81.8151 384.142 82.2916C384.674 82.7682 384.939 83.399 384.939 84.1842C384.939 85.0123 384.679 85.651 384.16 86.1002C383.644 86.5455 382.904 86.7682 381.939 86.7682H379.929ZM379.929 85.8483H381.951C382.553 85.8483 383.013 85.7076 383.334 85.4264C383.654 85.1412 383.814 84.7311 383.814 84.1959C383.814 83.6881 383.654 83.2819 383.334 82.9772C383.013 82.6725 382.574 82.5143 382.015 82.5026H379.929V85.8483ZM387.289 84.5358C387.769 83.9459 388.394 83.651 389.164 83.651C390.504 83.651 391.179 84.4069 391.191 85.9186V90.108H390.107V85.9127C390.103 85.4557 389.998 85.1178 389.791 84.899C389.588 84.6803 389.269 84.5709 388.836 84.5709C388.484 84.5709 388.176 84.6647 387.91 84.8522C387.644 85.0397 387.437 85.2858 387.289 85.5905V90.108H386.205V81.108H387.289V84.5358ZM392.527 86.8795C392.527 86.2584 392.648 85.6998 392.89 85.2037C393.137 84.7076 393.476 84.3248 393.91 84.0553C394.347 83.7858 394.846 83.651 395.404 83.651C396.267 83.651 396.965 83.9498 397.496 84.5475C398.031 85.1451 398.299 85.9401 398.299 86.9323V87.0084C398.299 87.6256 398.179 88.1803 397.941 88.6725C397.707 89.1608 397.369 89.5416 396.928 89.8151C396.49 90.0885 395.986 90.2252 395.416 90.2252C394.556 90.2252 393.859 89.9264 393.324 89.3287C392.793 88.7311 392.527 87.9401 392.527 86.9557V86.8795ZM393.617 87.0084C393.617 87.7115 393.779 88.276 394.103 88.7018C394.431 89.1276 394.869 89.3405 395.416 89.3405C395.967 89.3405 396.404 89.1256 396.728 88.6959C397.053 88.2623 397.215 87.6569 397.215 86.8795C397.215 86.1842 397.049 85.6217 396.717 85.192C396.388 84.7584 395.951 84.5416 395.404 84.5416C394.869 84.5416 394.437 84.7545 394.109 85.1803C393.781 85.6061 393.617 86.2155 393.617 87.0084ZM395.984 82.8307H395.053L393.541 81.108H394.847L395.984 82.8307ZM400.683 83.7682L400.719 84.5651C401.203 83.9557 401.836 83.651 402.617 83.651C403.957 83.651 404.633 84.4069 404.644 85.9186V90.108H403.56V85.9127C403.556 85.4557 403.451 85.1178 403.244 84.899C403.041 84.6803 402.722 84.5709 402.289 84.5709C401.937 84.5709 401.629 84.6647 401.363 84.8522C401.097 85.0397 400.89 85.2858 400.742 85.5905V90.108H399.658V83.7682H400.683ZM406.021 86.8854C406.021 85.8971 406.25 85.1119 406.707 84.5299C407.164 83.944 407.769 83.651 408.523 83.651C409.297 83.651 409.9 83.9244 410.334 84.4713L410.387 83.7682H411.377V89.9557C411.377 90.776 411.133 91.4225 410.644 91.8951C410.16 92.3678 409.508 92.6041 408.687 92.6041C408.23 92.6041 407.783 92.5065 407.346 92.3112C406.908 92.1158 406.574 91.8483 406.344 91.5084L406.906 90.858C407.371 91.4323 407.939 91.7194 408.611 91.7194C409.138 91.7194 409.549 91.5709 409.842 91.274C410.138 90.9772 410.287 90.5592 410.287 90.0201V89.4752C409.853 89.9752 409.262 90.2252 408.512 90.2252C407.769 90.2252 407.168 89.9264 406.707 89.3287C406.25 88.7311 406.021 87.9166 406.021 86.8854ZM407.111 87.0084C407.111 87.7233 407.258 88.2858 407.551 88.6959C407.844 89.1022 408.254 89.3053 408.781 89.3053C409.465 89.3053 409.967 88.9948 410.287 88.3737V85.4791C409.955 84.8737 409.457 84.5709 408.793 84.5709C408.265 84.5709 407.853 84.776 407.556 85.1862C407.26 85.5963 407.111 86.2037 407.111 87.0084ZM392.392 99.9127L392.885 95.5768H397.666V96.9889H394.273L394.062 98.8229C394.465 98.608 394.892 98.5006 395.346 98.5006C396.158 98.5006 396.795 98.7526 397.256 99.2565C397.717 99.7604 397.947 100.465 397.947 101.372C397.947 101.922 397.83 102.417 397.596 102.854C397.365 103.288 397.033 103.626 396.599 103.868C396.166 104.106 395.654 104.225 395.064 104.225C394.549 104.225 394.07 104.122 393.629 103.915C393.187 103.704 392.838 103.409 392.58 103.03C392.326 102.651 392.191 102.219 392.176 101.735H393.851C393.887 102.09 394.01 102.368 394.221 102.567C394.435 102.762 394.715 102.86 395.058 102.86C395.441 102.86 395.736 102.723 395.943 102.45C396.15 102.172 396.254 101.782 396.254 101.278C396.254 100.794 396.135 100.422 395.896 100.165C395.658 99.9069 395.32 99.778 394.883 99.778C394.48 99.778 394.154 99.8834 393.904 100.094L393.74 100.247L392.392 99.9127Z" fill="#2F80ED"/>
<path d="M483.942 86.7682V90.108H482.817V81.5768H485.964C486.898 81.5768 487.628 81.8151 488.155 82.2916C488.687 82.7682 488.952 83.399 488.952 84.1842C488.952 85.0123 488.692 85.651 488.173 86.1002C487.657 86.5455 486.917 86.7682 485.952 86.7682H483.942ZM483.942 85.8483H485.964C486.565 85.8483 487.026 85.7076 487.347 85.4264C487.667 85.1412 487.827 84.7311 487.827 84.1959C487.827 83.6881 487.667 83.2819 487.347 82.9772C487.026 82.6725 486.587 82.5143 486.028 82.5026H483.942V85.8483ZM491.302 84.5358C491.782 83.9459 492.407 83.651 493.177 83.651C494.517 83.651 495.192 84.4069 495.204 85.9186V90.108H494.12V85.9127C494.116 85.4557 494.011 85.1178 493.804 84.899C493.601 84.6803 493.282 84.5709 492.849 84.5709C492.497 84.5709 492.189 84.6647 491.923 84.8522C491.657 85.0397 491.45 85.2858 491.302 85.5905V90.108H490.218V81.108H491.302V84.5358ZM496.54 86.8795C496.54 86.2584 496.661 85.6998 496.903 85.2037C497.149 84.7076 497.489 84.3248 497.923 84.0553C498.36 83.7858 498.858 83.651 499.417 83.651C500.28 83.651 500.978 83.9498 501.509 84.5475C502.044 85.1451 502.312 85.9401 502.312 86.9323V87.0084C502.312 87.6256 502.192 88.1803 501.954 88.6725C501.72 89.1608 501.382 89.5416 500.94 89.8151C500.503 90.0885 499.999 90.2252 499.429 90.2252C498.569 90.2252 497.872 89.9264 497.337 89.3287C496.806 88.7311 496.54 87.9401 496.54 86.9557V86.8795ZM497.63 87.0084C497.63 87.7115 497.792 88.276 498.116 88.7018C498.444 89.1276 498.882 89.3405 499.429 89.3405C499.98 89.3405 500.417 89.1256 500.741 88.6959C501.065 88.2623 501.228 87.6569 501.228 86.8795C501.228 86.1842 501.062 85.6217 500.73 85.192C500.401 84.7584 499.964 84.5416 499.417 84.5416C498.882 84.5416 498.45 84.7545 498.122 85.1803C497.794 85.6061 497.63 86.2155 497.63 87.0084ZM499.997 82.8307H499.065L497.554 81.108H498.86L499.997 82.8307ZM504.696 83.7682L504.731 84.5651C505.216 83.9557 505.849 83.651 506.63 83.651C507.97 83.651 508.646 84.4069 508.657 85.9186V90.108H507.573V85.9127C507.569 85.4557 507.464 85.1178 507.257 84.899C507.054 84.6803 506.735 84.5709 506.302 84.5709C505.95 84.5709 505.642 84.6647 505.376 84.8522C505.11 85.0397 504.903 85.2858 504.755 85.5905V90.108H503.671V83.7682H504.696ZM510.034 86.8854C510.034 85.8971 510.263 85.1119 510.72 84.5299C511.177 83.944 511.782 83.651 512.536 83.651C513.31 83.651 513.913 83.9244 514.347 84.4713L514.399 83.7682H515.39V89.9557C515.39 90.776 515.146 91.4225 514.657 91.8951C514.173 92.3678 513.521 92.6041 512.7 92.6041C512.243 92.6041 511.796 92.5065 511.358 92.3112C510.921 92.1158 510.587 91.8483 510.356 91.5084L510.919 90.858C511.384 91.4323 511.952 91.7194 512.624 91.7194C513.151 91.7194 513.562 91.5709 513.855 91.274C514.151 90.9772 514.3 90.5592 514.3 90.0201V89.4752C513.866 89.9752 513.274 90.2252 512.524 90.2252C511.782 90.2252 511.181 89.9264 510.72 89.3287C510.263 88.7311 510.034 87.9166 510.034 86.8854ZM511.124 87.0084C511.124 87.7233 511.271 88.2858 511.564 88.6959C511.856 89.1022 512.267 89.3053 512.794 89.3053C513.478 89.3053 513.98 88.9948 514.3 88.3737V85.4791C513.968 84.8737 513.47 84.5709 512.806 84.5709C512.278 84.5709 511.866 84.776 511.569 85.1862C511.273 85.5963 511.124 86.2037 511.124 87.0084ZM501.954 96.526L498.655 104.108H496.868L500.173 96.9479H495.931V95.5768H501.954V96.526Z" fill="#2F80ED"/>
<path d="M535.227 86.7682V90.108H534.102V81.5768H537.248C538.182 81.5768 538.912 81.8151 539.439 82.2916C539.971 82.7682 540.236 83.399 540.236 84.1842C540.236 85.0123 539.977 85.651 539.457 86.1002C538.941 86.5455 538.201 86.7682 537.236 86.7682H535.227ZM535.227 85.8483H537.248C537.85 85.8483 538.311 85.7076 538.631 85.4264C538.951 85.1412 539.111 84.7311 539.111 84.1959C539.111 83.6881 538.951 83.2819 538.631 82.9772C538.311 82.6725 537.871 82.5143 537.313 82.5026H535.227V85.8483ZM542.586 84.5358C543.066 83.9459 543.691 83.651 544.461 83.651C545.801 83.651 546.477 84.4069 546.488 85.9186V90.108H545.404V85.9127C545.4 85.4557 545.295 85.1178 545.088 84.899C544.885 84.6803 544.566 84.5709 544.133 84.5709C543.781 84.5709 543.473 84.6647 543.207 84.8522C542.941 85.0397 542.734 85.2858 542.586 85.5905V90.108H541.502V81.108H542.586V84.5358ZM547.824 86.8795C547.824 86.2584 547.945 85.6998 548.188 85.2037C548.434 84.7076 548.773 84.3248 549.207 84.0553C549.645 83.7858 550.143 83.651 550.701 83.651C551.564 83.651 552.262 83.9498 552.793 84.5475C553.328 85.1451 553.596 85.9401 553.596 86.9323V87.0084C553.596 87.6256 553.477 88.1803 553.238 88.6725C553.004 89.1608 552.666 89.5416 552.225 89.8151C551.787 90.0885 551.283 90.2252 550.713 90.2252C549.854 90.2252 549.156 89.9264 548.621 89.3287C548.09 88.7311 547.824 87.9401 547.824 86.9557V86.8795ZM548.914 87.0084C548.914 87.7115 549.076 88.276 549.4 88.7018C549.729 89.1276 550.166 89.3405 550.713 89.3405C551.264 89.3405 551.701 89.1256 552.025 88.6959C552.35 88.2623 552.512 87.6569 552.512 86.8795C552.512 86.1842 552.346 85.6217 552.014 85.192C551.686 84.7584 551.248 84.5416 550.701 84.5416C550.166 84.5416 549.734 84.7545 549.406 85.1803C549.078 85.6061 548.914 86.2155 548.914 87.0084ZM551.281 82.8307H550.35L548.838 81.108H550.145L551.281 82.8307ZM555.981 83.7682L556.016 84.5651C556.5 83.9557 557.133 83.651 557.914 83.651C559.254 83.651 559.93 84.4069 559.941 85.9186V90.108H558.857V85.9127C558.854 85.4557 558.748 85.1178 558.541 84.899C558.338 84.6803 558.02 84.5709 557.586 84.5709C557.234 84.5709 556.926 84.6647 556.66 84.8522C556.395 85.0397 556.188 85.2858 556.039 85.5905V90.108H554.955V83.7682H555.981ZM561.318 86.8854C561.318 85.8971 561.547 85.1119 562.004 84.5299C562.461 83.944 563.066 83.651 563.82 83.651C564.594 83.651 565.197 83.9244 565.631 84.4713L565.684 83.7682H566.674V89.9557C566.674 90.776 566.43 91.4225 565.941 91.8951C565.457 92.3678 564.805 92.6041 563.984 92.6041C563.527 92.6041 563.08 92.5065 562.643 92.3112C562.205 92.1158 561.871 91.8483 561.641 91.5084L562.203 90.858C562.668 91.4323 563.236 91.7194 563.908 91.7194C564.436 91.7194 564.846 91.5709 565.139 91.274C565.436 90.9772 565.584 90.5592 565.584 90.0201V89.4752C565.15 89.9752 564.559 90.2252 563.809 90.2252C563.066 90.2252 562.465 89.9264 562.004 89.3287C561.547 88.7311 561.318 87.9166 561.318 86.8854ZM562.408 87.0084C562.408 87.7233 562.555 88.2858 562.848 88.6959C563.141 89.1022 563.551 89.3053 564.078 89.3053C564.762 89.3053 565.264 88.9948 565.584 88.3737V85.4791C565.252 84.8737 564.754 84.5709 564.09 84.5709C563.563 84.5709 563.15 84.776 562.854 85.1862C562.557 85.5963 562.408 86.2037 562.408 87.0084ZM552.998 97.8444C552.998 98.2584 552.895 98.6256 552.688 98.9459C552.481 99.2662 552.195 99.5221 551.832 99.7135C552.246 99.9127 552.574 100.188 552.816 100.54C553.059 100.887 553.18 101.297 553.18 101.77C553.18 102.528 552.922 103.128 552.406 103.569C551.891 104.006 551.189 104.225 550.303 104.225C549.416 104.225 548.713 104.005 548.193 103.563C547.674 103.122 547.414 102.524 547.414 101.77C547.414 101.297 547.535 100.885 547.777 100.534C548.02 100.182 548.346 99.9088 548.756 99.7135C548.393 99.5221 548.107 99.2662 547.9 98.9459C547.697 98.6256 547.596 98.2584 547.596 97.8444C547.596 97.1178 547.838 96.5397 548.322 96.11C548.807 95.6764 549.465 95.4596 550.297 95.4596C551.125 95.4596 551.781 95.6744 552.266 96.1041C552.754 96.5299 552.998 97.11 552.998 97.8444ZM551.481 101.647C551.481 101.276 551.373 100.979 551.158 100.756C550.943 100.534 550.654 100.422 550.291 100.422C549.932 100.422 549.645 100.534 549.43 100.756C549.215 100.975 549.107 101.272 549.107 101.647C549.107 102.01 549.213 102.303 549.424 102.526C549.635 102.749 549.928 102.86 550.303 102.86C550.67 102.86 550.957 102.753 551.164 102.538C551.375 102.323 551.481 102.026 551.481 101.647ZM551.305 97.9264C551.305 97.5944 551.217 97.3287 551.041 97.1295C550.865 96.9264 550.617 96.8248 550.297 96.8248C549.981 96.8248 549.734 96.9225 549.559 97.1178C549.383 97.3131 549.295 97.5826 549.295 97.9264C549.295 98.2662 549.383 98.5397 549.559 98.7467C549.734 98.9537 549.982 99.0573 550.303 99.0573C550.623 99.0573 550.869 98.9537 551.041 98.7467C551.217 98.5397 551.305 98.2662 551.305 97.9264Z" fill="#2F80ED"/>
<path d="M587.233 86.7682V90.108H586.108V81.5768H589.254C590.188 81.5768 590.918 81.8151 591.446 82.2916C591.977 82.7682 592.243 83.399 592.243 84.1842C592.243 85.0123 591.983 85.651 591.463 86.1002C590.948 86.5455 590.208 86.7682 589.243 86.7682H587.233ZM587.233 85.8483H589.254C589.856 85.8483 590.317 85.7076 590.637 85.4264C590.958 85.1412 591.118 84.7311 591.118 84.1959C591.118 83.6881 590.958 83.2819 590.637 82.9772C590.317 82.6725 589.877 82.5143 589.319 82.5026H587.233V85.8483ZM594.592 84.5358C595.073 83.9459 595.698 83.651 596.467 83.651C597.807 83.651 598.483 84.4069 598.495 85.9186V90.108H597.411V85.9127C597.407 85.4557 597.301 85.1178 597.094 84.899C596.891 84.6803 596.573 84.5709 596.139 84.5709C595.788 84.5709 595.479 84.6647 595.213 84.8522C594.948 85.0397 594.741 85.2858 594.592 85.5905V90.108H593.508V81.108H594.592V84.5358ZM599.831 86.8795C599.831 86.2584 599.952 85.6998 600.194 85.2037C600.44 84.7076 600.78 84.3248 601.213 84.0553C601.651 83.7858 602.149 83.651 602.708 83.651C603.571 83.651 604.268 83.9498 604.799 84.5475C605.335 85.1451 605.602 85.9401 605.602 86.9323V87.0084C605.602 87.6256 605.483 88.1803 605.245 88.6725C605.01 89.1608 604.672 89.5416 604.231 89.8151C603.793 90.0885 603.29 90.2252 602.719 90.2252C601.86 90.2252 601.163 89.9264 600.627 89.3287C600.096 88.7311 599.831 87.9401 599.831 86.9557V86.8795ZM600.92 87.0084C600.92 87.7115 601.083 88.276 601.407 88.7018C601.735 89.1276 602.172 89.3405 602.719 89.3405C603.27 89.3405 603.708 89.1256 604.032 88.6959C604.356 88.2623 604.518 87.6569 604.518 86.8795C604.518 86.1842 604.352 85.6217 604.02 85.192C603.692 84.7584 603.254 84.5416 602.708 84.5416C602.172 84.5416 601.741 84.7545 601.413 85.1803C601.085 85.6061 600.92 86.2155 600.92 87.0084ZM603.288 82.8307H602.356L600.844 81.108H602.151L603.288 82.8307ZM607.987 83.7682L608.022 84.5651C608.506 83.9557 609.139 83.651 609.92 83.651C611.26 83.651 611.936 84.4069 611.948 85.9186V90.108H610.864V85.9127C610.86 85.4557 610.754 85.1178 610.547 84.899C610.344 84.6803 610.026 84.5709 609.592 84.5709C609.241 84.5709 608.932 84.6647 608.667 84.8522C608.401 85.0397 608.194 85.2858 608.045 85.5905V90.108H606.961V83.7682H607.987ZM613.325 86.8854C613.325 85.8971 613.553 85.1119 614.01 84.5299C614.467 83.944 615.073 83.651 615.827 83.651C616.6 83.651 617.204 83.9244 617.637 84.4713L617.69 83.7682H618.68V89.9557C618.68 90.776 618.436 91.4225 617.948 91.8951C617.463 92.3678 616.811 92.6041 615.991 92.6041C615.534 92.6041 615.086 92.5065 614.649 92.3112C614.211 92.1158 613.877 91.8483 613.647 91.5084L614.21 90.858C614.674 91.4323 615.243 91.7194 615.915 91.7194C616.442 91.7194 616.852 91.5709 617.145 91.274C617.442 90.9772 617.59 90.5592 617.59 90.0201V89.4752C617.157 89.9752 616.565 90.2252 615.815 90.2252C615.073 90.2252 614.471 89.9264 614.01 89.3287C613.553 88.7311 613.325 87.9166 613.325 86.8854ZM614.415 87.0084C614.415 87.7233 614.561 88.2858 614.854 88.6959C615.147 89.1022 615.557 89.3053 616.085 89.3053C616.768 89.3053 617.27 88.9948 617.59 88.3737V85.4791C617.258 84.8737 616.76 84.5709 616.096 84.5709C615.569 84.5709 615.157 84.776 614.86 85.1862C614.563 85.5963 614.415 86.2037 614.415 87.0084ZM603.405 100.698C602.963 101.131 602.448 101.348 601.858 101.348C601.104 101.348 600.501 101.09 600.047 100.575C599.594 100.055 599.368 99.3561 599.368 98.4772C599.368 97.9186 599.489 97.4069 599.731 96.942C599.977 96.4733 600.319 96.11 600.756 95.8522C601.194 95.5905 601.686 95.4596 602.233 95.4596C602.795 95.4596 603.295 95.6002 603.733 95.8815C604.17 96.1627 604.51 96.567 604.752 97.0944C604.995 97.6217 605.118 98.2252 605.122 98.9049V99.5319C605.122 100.954 604.768 102.071 604.061 102.883C603.354 103.696 602.352 104.13 601.055 104.184L600.639 104.19V102.778L601.014 102.772C602.487 102.706 603.284 102.014 603.405 100.698ZM602.274 100.053C602.547 100.053 602.782 99.983 602.977 99.8424C603.176 99.7018 603.327 99.5319 603.428 99.3326V98.6354C603.428 98.0612 603.319 97.6158 603.1 97.2994C602.881 96.983 602.588 96.8248 602.221 96.8248C601.881 96.8248 601.602 96.9811 601.383 97.2936C601.165 97.6022 601.055 97.9908 601.055 98.4596C601.055 98.9244 601.161 99.3073 601.372 99.608C601.586 99.9049 601.887 100.053 602.274 100.053Z" fill="#2F80ED"/>
<path d="M638.517 86.7682V90.108H637.392V81.5768H640.539C641.472 81.5768 642.203 81.8151 642.73 82.2916C643.261 82.7682 643.527 83.399 643.527 84.1842C643.527 85.0123 643.267 85.651 642.748 86.1002C642.232 86.5455 641.492 86.7682 640.527 86.7682H638.517ZM638.517 85.8483H640.539C641.14 85.8483 641.601 85.7076 641.921 85.4264C642.242 85.1412 642.402 84.7311 642.402 84.1959C642.402 83.6881 642.242 83.2819 641.921 82.9772C641.601 82.6725 641.162 82.5143 640.603 82.5026H638.517V85.8483ZM645.877 84.5358C646.357 83.9459 646.982 83.651 647.752 83.651C649.091 83.651 649.767 84.4069 649.779 85.9186V90.108H648.695V85.9127C648.691 85.4557 648.585 85.1178 648.378 84.899C648.175 84.6803 647.857 84.5709 647.423 84.5709C647.072 84.5709 646.763 84.6647 646.498 84.8522C646.232 85.0397 646.025 85.2858 645.877 85.5905V90.108H644.793V81.108H645.877V84.5358ZM651.115 86.8795C651.115 86.2584 651.236 85.6998 651.478 85.2037C651.724 84.7076 652.064 84.3248 652.498 84.0553C652.935 83.7858 653.433 83.651 653.992 83.651C654.855 83.651 655.552 83.9498 656.084 84.5475C656.619 85.1451 656.886 85.9401 656.886 86.9323V87.0084C656.886 87.6256 656.767 88.1803 656.529 88.6725C656.294 89.1608 655.957 89.5416 655.515 89.8151C655.078 90.0885 654.574 90.2252 654.003 90.2252C653.144 90.2252 652.447 89.9264 651.912 89.3287C651.38 88.7311 651.115 87.9401 651.115 86.9557V86.8795ZM652.205 87.0084C652.205 87.7115 652.367 88.276 652.691 88.7018C653.019 89.1276 653.457 89.3405 654.003 89.3405C654.554 89.3405 654.992 89.1256 655.316 88.6959C655.64 88.2623 655.802 87.6569 655.802 86.8795C655.802 86.1842 655.636 85.6217 655.304 85.192C654.976 84.7584 654.539 84.5416 653.992 84.5416C653.457 84.5416 653.025 84.7545 652.697 85.1803C652.369 85.6061 652.205 86.2155 652.205 87.0084ZM654.572 82.8307H653.64L652.128 81.108H653.435L654.572 82.8307ZM659.271 83.7682L659.306 84.5651C659.791 83.9557 660.423 83.651 661.205 83.651C662.544 83.651 663.22 84.4069 663.232 85.9186V90.108H662.148V85.9127C662.144 85.4557 662.039 85.1178 661.832 84.899C661.628 84.6803 661.31 84.5709 660.877 84.5709C660.525 84.5709 660.216 84.6647 659.951 84.8522C659.685 85.0397 659.478 85.2858 659.33 85.5905V90.108H658.246V83.7682H659.271ZM664.609 86.8854C664.609 85.8971 664.837 85.1119 665.294 84.5299C665.752 83.944 666.357 83.651 667.111 83.651C667.884 83.651 668.488 83.9244 668.921 84.4713L668.974 83.7682H669.964V89.9557C669.964 90.776 669.72 91.4225 669.232 91.8951C668.748 92.3678 668.095 92.6041 667.275 92.6041C666.818 92.6041 666.371 92.5065 665.933 92.3112C665.496 92.1158 665.162 91.8483 664.931 91.5084L665.494 90.858C665.959 91.4323 666.527 91.7194 667.199 91.7194C667.726 91.7194 668.136 91.5709 668.429 91.274C668.726 90.9772 668.875 90.5592 668.875 90.0201V89.4752C668.441 89.9752 667.849 90.2252 667.099 90.2252C666.357 90.2252 665.755 89.9264 665.294 89.3287C664.837 88.7311 664.609 87.9166 664.609 86.8854ZM665.699 87.0084C665.699 87.7233 665.845 88.2858 666.138 88.6959C666.431 89.1022 666.841 89.3053 667.369 89.3053C668.052 89.3053 668.554 88.9948 668.875 88.3737V85.4791C668.543 84.8737 668.044 84.5709 667.38 84.5709C666.853 84.5709 666.441 84.776 666.144 85.1862C665.847 85.5963 665.699 86.2037 665.699 87.0084ZM651.396 104.108H649.703V97.5807L647.681 98.2076V96.8307L651.214 95.5651H651.396V104.108ZM659.916 100.581C659.916 101.76 659.671 102.663 659.183 103.288C658.695 103.913 657.98 104.225 657.039 104.225C656.109 104.225 655.398 103.919 654.906 103.305C654.414 102.692 654.162 101.813 654.15 100.669V99.0983C654.15 97.9069 654.396 97.0026 654.888 96.3854C655.384 95.7682 656.097 95.4596 657.027 95.4596C657.957 95.4596 658.668 95.7662 659.16 96.3795C659.652 96.9889 659.904 97.8658 659.916 99.0104V100.581ZM658.222 98.858C658.222 98.151 658.125 97.6373 657.929 97.317C657.738 96.9928 657.437 96.8307 657.027 96.8307C656.628 96.8307 656.334 96.985 656.142 97.2936C655.955 97.5983 655.855 98.0768 655.843 98.7291V100.803C655.843 101.499 655.937 102.016 656.125 102.356C656.316 102.692 656.621 102.86 657.039 102.86C657.453 102.86 657.752 102.698 657.935 102.374C658.119 102.049 658.214 101.553 658.222 100.885V98.858Z" fill="#2F80ED"/>
<path d="M692.69 86.7682V90.108H691.565V81.5768H694.711C695.645 81.5768 696.376 81.8151 696.903 82.2916C697.434 82.7682 697.7 83.399 697.7 84.1842C697.7 85.0123 697.44 85.651 696.92 86.1002C696.405 86.5455 695.665 86.7682 694.7 86.7682H692.69ZM692.69 85.8483H694.711C695.313 85.8483 695.774 85.7076 696.094 85.4264C696.415 85.1412 696.575 84.7311 696.575 84.1959C696.575 83.6881 696.415 83.2819 696.094 82.9772C695.774 82.6725 695.335 82.5143 694.776 82.5026H692.69V85.8483ZM700.049 84.5358C700.53 83.9459 701.155 83.651 701.924 83.651C703.264 83.651 703.94 84.4069 703.952 85.9186V90.108H702.868V85.9127C702.864 85.4557 702.758 85.1178 702.551 84.899C702.348 84.6803 702.03 84.5709 701.596 84.5709C701.245 84.5709 700.936 84.6647 700.67 84.8522C700.405 85.0397 700.198 85.2858 700.049 85.5905V90.108H698.965V81.108H700.049V84.5358ZM705.288 86.8795C705.288 86.2584 705.409 85.6998 705.651 85.2037C705.897 84.7076 706.237 84.3248 706.67 84.0553C707.108 83.7858 707.606 83.651 708.165 83.651C709.028 83.651 709.725 83.9498 710.256 84.5475C710.792 85.1451 711.059 85.9401 711.059 86.9323V87.0084C711.059 87.6256 710.94 88.1803 710.702 88.6725C710.467 89.1608 710.129 89.5416 709.688 89.8151C709.251 90.0885 708.747 90.2252 708.176 90.2252C707.317 90.2252 706.62 89.9264 706.085 89.3287C705.553 88.7311 705.288 87.9401 705.288 86.9557V86.8795ZM706.377 87.0084C706.377 87.7115 706.54 88.276 706.864 88.7018C707.192 89.1276 707.629 89.3405 708.176 89.3405C708.727 89.3405 709.165 89.1256 709.489 88.6959C709.813 88.2623 709.975 87.6569 709.975 86.8795C709.975 86.1842 709.809 85.6217 709.477 85.192C709.149 84.7584 708.711 84.5416 708.165 84.5416C707.629 84.5416 707.198 84.7545 706.87 85.1803C706.542 85.6061 706.377 86.2155 706.377 87.0084ZM708.745 82.8307H707.813L706.301 81.108H707.608L708.745 82.8307ZM713.444 83.7682L713.479 84.5651C713.963 83.9557 714.596 83.651 715.377 83.651C716.717 83.651 717.393 84.4069 717.405 85.9186V90.108H716.321V85.9127C716.317 85.4557 716.211 85.1178 716.004 84.899C715.801 84.6803 715.483 84.5709 715.049 84.5709C714.698 84.5709 714.389 84.6647 714.124 84.8522C713.858 85.0397 713.651 85.2858 713.502 85.5905V90.108H712.418V83.7682H713.444ZM718.782 86.8854C718.782 85.8971 719.01 85.1119 719.467 84.5299C719.924 83.944 720.53 83.651 721.284 83.651C722.057 83.651 722.661 83.9244 723.094 84.4713L723.147 83.7682H724.137V89.9557C724.137 90.776 723.893 91.4225 723.405 91.8951C722.92 92.3678 722.268 92.6041 721.448 92.6041C720.991 92.6041 720.543 92.5065 720.106 92.3112C719.668 92.1158 719.335 91.8483 719.104 91.5084L719.667 90.858C720.131 91.4323 720.7 91.7194 721.372 91.7194C721.899 91.7194 722.309 91.5709 722.602 91.274C722.899 90.9772 723.047 90.5592 723.047 90.0201V89.4752C722.614 89.9752 722.022 90.2252 721.272 90.2252C720.53 90.2252 719.928 89.9264 719.467 89.3287C719.01 88.7311 718.782 87.9166 718.782 86.8854ZM719.872 87.0084C719.872 87.7233 720.018 88.2858 720.311 88.6959C720.604 89.1022 721.014 89.3053 721.542 89.3053C722.225 89.3053 722.727 88.9948 723.047 88.3737V85.4791C722.715 84.8737 722.217 84.5709 721.553 84.5709C721.026 84.5709 720.614 84.776 720.317 85.1862C720.02 85.5963 719.872 86.2037 719.872 87.0084ZM705.569 104.108H703.876V97.5807L701.854 98.2076V96.8307L705.387 95.5651H705.569V104.108ZM712.46 104.108H710.766V97.5807L708.745 98.2076V96.8307L712.278 95.5651H712.46V104.108Z" fill="#2F80ED"/>
<path d="M743.974 86.7682V90.108H742.849V81.5768H745.996C746.929 81.5768 747.66 81.8151 748.187 82.2916C748.718 82.7682 748.984 83.399 748.984 84.1842C748.984 85.0123 748.724 85.651 748.205 86.1002C747.689 86.5455 746.949 86.7682 745.984 86.7682H743.974ZM743.974 85.8483H745.996C746.597 85.8483 747.058 85.7076 747.378 85.4264C747.699 85.1412 747.859 84.7311 747.859 84.1959C747.859 83.6881 747.699 83.2819 747.378 82.9772C747.058 82.6725 746.619 82.5143 746.06 82.5026H743.974V85.8483ZM751.334 84.5358C751.814 83.9459 752.439 83.651 753.209 83.651C754.548 83.651 755.224 84.4069 755.236 85.9186V90.108H754.152V85.9127C754.148 85.4557 754.043 85.1178 753.835 84.899C753.632 84.6803 753.314 84.5709 752.88 84.5709C752.529 84.5709 752.22 84.6647 751.955 84.8522C751.689 85.0397 751.482 85.2858 751.334 85.5905V90.108H750.25V81.108H751.334V84.5358ZM756.572 86.8795C756.572 86.2584 756.693 85.6998 756.935 85.2037C757.181 84.7076 757.521 84.3248 757.955 84.0553C758.392 83.7858 758.89 83.651 759.449 83.651C760.312 83.651 761.009 83.9498 761.541 84.5475C762.076 85.1451 762.343 85.9401 762.343 86.9323V87.0084C762.343 87.6256 762.224 88.1803 761.986 88.6725C761.752 89.1608 761.414 89.5416 760.972 89.8151C760.535 90.0885 760.031 90.2252 759.46 90.2252C758.601 90.2252 757.904 89.9264 757.369 89.3287C756.837 88.7311 756.572 87.9401 756.572 86.9557V86.8795ZM757.662 87.0084C757.662 87.7115 757.824 88.276 758.148 88.7018C758.476 89.1276 758.914 89.3405 759.46 89.3405C760.011 89.3405 760.449 89.1256 760.773 88.6959C761.097 88.2623 761.259 87.6569 761.259 86.8795C761.259 86.1842 761.093 85.6217 760.761 85.192C760.433 84.7584 759.996 84.5416 759.449 84.5416C758.914 84.5416 758.482 84.7545 758.154 85.1803C757.826 85.6061 757.662 86.2155 757.662 87.0084ZM760.029 82.8307H759.097L757.585 81.108H758.892L760.029 82.8307ZM764.728 83.7682L764.763 84.5651C765.248 83.9557 765.88 83.651 766.662 83.651C768.002 83.651 768.677 84.4069 768.689 85.9186V90.108H767.605V85.9127C767.601 85.4557 767.496 85.1178 767.289 84.899C767.085 84.6803 766.767 84.5709 766.334 84.5709C765.982 84.5709 765.673 84.6647 765.408 84.8522C765.142 85.0397 764.935 85.2858 764.787 85.5905V90.108H763.703V83.7682H764.728ZM770.066 86.8854C770.066 85.8971 770.294 85.1119 770.752 84.5299C771.209 83.944 771.814 83.651 772.568 83.651C773.341 83.651 773.945 83.9244 774.378 84.4713L774.431 83.7682H775.421V89.9557C775.421 90.776 775.177 91.4225 774.689 91.8951C774.205 92.3678 773.552 92.6041 772.732 92.6041C772.275 92.6041 771.828 92.5065 771.39 92.3112C770.953 92.1158 770.619 91.8483 770.388 91.5084L770.951 90.858C771.416 91.4323 771.984 91.7194 772.656 91.7194C773.183 91.7194 773.593 91.5709 773.886 91.274C774.183 90.9772 774.332 90.5592 774.332 90.0201V89.4752C773.898 89.9752 773.306 90.2252 772.556 90.2252C771.814 90.2252 771.212 89.9264 770.752 89.3287C770.294 88.7311 770.066 87.9166 770.066 86.8854ZM771.156 87.0084C771.156 87.7233 771.302 88.2858 771.595 88.6959C771.888 89.1022 772.298 89.3053 772.826 89.3053C773.509 89.3053 774.011 88.9948 774.332 88.3737V85.4791C774 84.8737 773.502 84.5709 772.837 84.5709C772.31 84.5709 771.898 84.776 771.601 85.1862C771.304 85.5963 771.156 86.2037 771.156 87.0084ZM756.853 104.108H755.16V97.5807L753.138 98.2076V96.8307L756.671 95.5651H756.853V104.108ZM765.478 104.108H759.63V102.948L762.39 100.006C762.769 99.5924 763.048 99.2311 763.228 98.9225C763.412 98.6139 763.503 98.3209 763.503 98.0436C763.503 97.6647 763.408 97.3678 763.216 97.153C763.025 96.9342 762.752 96.8248 762.396 96.8248C762.013 96.8248 761.71 96.9576 761.488 97.2233C761.269 97.485 761.16 97.8307 761.16 98.2604H759.46C759.46 97.7408 759.584 97.2662 759.83 96.8365C760.08 96.4069 760.431 96.0709 760.884 95.8287C761.337 95.5826 761.851 95.4596 762.425 95.4596C763.304 95.4596 763.986 95.6705 764.47 96.0924C764.959 96.5143 765.203 97.11 765.203 97.8795C765.203 98.3014 765.093 98.7311 764.875 99.1686C764.656 99.6061 764.281 100.116 763.75 100.698L761.81 102.743H765.478V104.108Z" fill="#2F80ED"/>
<path d="M795.981 86.7682V90.108H794.856V81.5768H798.002C798.936 81.5768 799.667 81.8151 800.194 82.2916C800.725 82.7682 800.991 83.399 800.991 84.1842C800.991 85.0123 800.731 85.651 800.211 86.1002C799.696 86.5455 798.956 86.7682 797.991 86.7682H795.981ZM795.981 85.8483H798.002C798.604 85.8483 799.065 85.7076 799.385 85.4264C799.706 85.1412 799.866 84.7311 799.866 84.1959C799.866 83.6881 799.706 83.2819 799.385 82.9772C799.065 82.6725 798.626 82.5143 798.067 82.5026H795.981V85.8483ZM803.34 84.5358C803.821 83.9459 804.446 83.651 805.215 83.651C806.555 83.651 807.231 84.4069 807.243 85.9186V90.108H806.159V85.9127C806.155 85.4557 806.049 85.1178 805.842 84.899C805.639 84.6803 805.321 84.5709 804.887 84.5709C804.536 84.5709 804.227 84.6647 803.961 84.8522C803.696 85.0397 803.489 85.2858 803.34 85.5905V90.108H802.256V81.108H803.34V84.5358ZM808.579 86.8795C808.579 86.2584 808.7 85.6998 808.942 85.2037C809.188 84.7076 809.528 84.3248 809.961 84.0553C810.399 83.7858 810.897 83.651 811.456 83.651C812.319 83.651 813.016 83.9498 813.547 84.5475C814.083 85.1451 814.35 85.9401 814.35 86.9323V87.0084C814.35 87.6256 814.231 88.1803 813.993 88.6725C813.758 89.1608 813.42 89.5416 812.979 89.8151C812.542 90.0885 812.038 90.2252 811.467 90.2252C810.608 90.2252 809.911 89.9264 809.376 89.3287C808.844 88.7311 808.579 87.9401 808.579 86.9557V86.8795ZM809.668 87.0084C809.668 87.7115 809.831 88.276 810.155 88.7018C810.483 89.1276 810.92 89.3405 811.467 89.3405C812.018 89.3405 812.456 89.1256 812.78 88.6959C813.104 88.2623 813.266 87.6569 813.266 86.8795C813.266 86.1842 813.1 85.6217 812.768 85.192C812.44 84.7584 812.002 84.5416 811.456 84.5416C810.92 84.5416 810.489 84.7545 810.161 85.1803C809.833 85.6061 809.668 86.2155 809.668 87.0084ZM812.036 82.8307H811.104L809.592 81.108H810.899L812.036 82.8307ZM816.735 83.7682L816.77 84.5651C817.254 83.9557 817.887 83.651 818.668 83.651C820.008 83.651 820.684 84.4069 820.696 85.9186V90.108H819.612V85.9127C819.608 85.4557 819.502 85.1178 819.295 84.899C819.092 84.6803 818.774 84.5709 818.34 84.5709C817.989 84.5709 817.68 84.6647 817.415 84.8522C817.149 85.0397 816.942 85.2858 816.793 85.5905V90.108H815.71V83.7682H816.735ZM822.073 86.8854C822.073 85.8971 822.301 85.1119 822.758 84.5299C823.215 83.944 823.821 83.651 824.575 83.651C825.348 83.651 825.952 83.9244 826.385 84.4713L826.438 83.7682H827.428V89.9557C827.428 90.776 827.184 91.4225 826.696 91.8951C826.211 92.3678 825.559 92.6041 824.739 92.6041C824.282 92.6041 823.835 92.5065 823.397 92.3112C822.96 92.1158 822.626 91.8483 822.395 91.5084L822.958 90.858C823.422 91.4323 823.991 91.7194 824.663 91.7194C825.19 91.7194 825.6 91.5709 825.893 91.274C826.19 90.9772 826.338 90.5592 826.338 90.0201V89.4752C825.905 89.9752 825.313 90.2252 824.563 90.2252C823.821 90.2252 823.219 89.9264 822.758 89.3287C822.301 88.7311 822.073 87.9166 822.073 86.8854ZM823.163 87.0084C823.163 87.7233 823.309 88.2858 823.602 88.6959C823.895 89.1022 824.305 89.3053 824.833 89.3053C825.516 89.3053 826.018 88.9948 826.338 88.3737V85.4791C826.006 84.8737 825.508 84.5709 824.844 84.5709C824.317 84.5709 823.905 84.776 823.608 85.1862C823.311 85.5963 823.163 86.2037 823.163 87.0084ZM808.86 104.108H807.167V97.5807L805.145 98.2076V96.8307L808.678 95.5651H808.86V104.108ZM813.36 99.0924H814.262C814.692 99.0924 815.01 98.985 815.217 98.7701C815.424 98.5553 815.528 98.2701 815.528 97.9147C815.528 97.5709 815.424 97.3033 815.217 97.1119C815.014 96.9205 814.733 96.8248 814.374 96.8248C814.049 96.8248 813.778 96.9147 813.559 97.0944C813.34 97.2701 813.231 97.5006 813.231 97.7858H811.538C811.538 97.3405 811.657 96.942 811.895 96.5905C812.137 96.235 812.473 95.9576 812.903 95.7584C813.336 95.5592 813.813 95.4596 814.333 95.4596C815.235 95.4596 815.942 95.6764 816.454 96.11C816.965 96.5397 817.221 97.1334 817.221 97.8912C817.221 98.2819 817.102 98.6412 816.864 98.9694C816.626 99.2975 816.313 99.5494 815.926 99.7252C816.407 99.8971 816.764 100.155 816.999 100.499C817.237 100.842 817.356 101.249 817.356 101.717C817.356 102.475 817.079 103.083 816.524 103.54C815.973 103.997 815.243 104.225 814.333 104.225C813.481 104.225 812.784 104.001 812.241 103.551C811.702 103.102 811.432 102.508 811.432 101.77H813.126C813.126 102.09 813.245 102.352 813.483 102.555C813.725 102.758 814.022 102.86 814.374 102.86C814.776 102.86 815.09 102.755 815.317 102.544C815.547 102.329 815.663 102.046 815.663 101.694C815.663 100.842 815.194 100.417 814.256 100.417H813.36V99.0924Z" fill="#2F80ED"/>
<line y1="-1" x2="30.5282" y2="-1" transform="matrix(0.591511 -0.806297 0.650153 0.759803 837.158 238.855)" stroke="#56CCF2" stroke-width="2"/>
<line x1="235.473" y1="237.855" x2="837.159" y2="237.855" stroke="#56CCF2" stroke-width="2"/>
<line x1="853.771" y1="213.24" x2="871.829" y2="213.24" stroke="#56CCF2" stroke-width="2"/>
<line x1="855.494" y1="92.9894" x2="855.494" y2="212.417" stroke="#56CCF2" stroke-width="2"/>
<ellipse cx="235.473" cy="237.943" rx="3.61156" ry="4.5583" fill="#2F80ED"/>
<ellipse cx="391.492" cy="237.943" rx="3.61156" ry="4.5583" fill="#2F80ED"/>
<ellipse cx="547.512" cy="237.943" rx="3.61156" ry="4.5583" fill="#2F80ED"/>
<ellipse cx="655.136" cy="237.943" rx="3.61156" ry="4.5583" fill="#2F80ED"/>
<ellipse cx="759.149" cy="237.943" rx="3.61156" ry="4.5583" fill="#2F80ED"/>
<ellipse cx="855.216" cy="92.0778" rx="3.61156" ry="4.5583" fill="#2F80ED"/>
<g clip-path="url(#clip0)">
<path d="M889.662 195.757H886.697V193.009L889.301 192.51C889.532 192.466 889.691 192.194 889.656 191.902C889.621 191.61 889.405 191.409 889.174 191.454L886.21 192.022C886.003 192.062 885.85 192.286 885.85 192.55V195.757H882.89C882.19 195.757 881.621 196.476 881.621 197.36V198.428C881.621 198.723 881.81 198.962 882.044 198.962H882.504L883.313 209.2C883.334 209.473 883.516 209.681 883.734 209.681H888.816C889.033 209.681 889.215 209.473 889.237 209.2L890.042 198.962H890.508C890.742 198.962 890.932 198.723 890.932 198.428V197.36C890.932 196.476 890.362 195.757 889.662 195.757V195.757ZM888.729 204.838H883.819L883.65 202.7H888.898L888.729 204.838ZM884.117 208.613L883.903 205.906H888.645L888.432 208.613H884.117ZM888.982 201.631H883.566L883.355 198.962H889.192L888.982 201.631ZM890.085 197.894C889.73 197.894 882.984 197.894 882.467 197.894V197.36C882.467 197.065 882.657 196.825 882.89 196.825H889.662C889.895 196.825 890.085 197.065 890.085 197.36V197.894Z" fill="#219653"/>
</g>
<g clip-path="url(#clip1)">
<path d="M24.3175 145.762H23.0535V142.609C23.0535 142.441 22.9458 142.305 22.8127 142.305C22.6797 142.305 22.572 142.441 22.572 142.609V145.762H19.3216V142.609C19.3216 142.441 19.2138 142.305 19.0808 142.305C18.9478 142.305 18.84 142.441 18.84 142.609V145.762H17.576C17.4429 145.762 17.3352 145.898 17.3352 146.066C17.3352 146.234 17.4429 146.37 17.576 146.37H17.7866V149.751C17.7866 151.95 19.2042 153.739 20.9468 153.739C22.6893 153.739 24.1069 151.95 24.1069 149.751V146.37H24.3175C24.4506 146.37 24.5583 146.234 24.5583 146.066C24.5583 145.898 24.4506 145.762 24.3175 145.762ZM21.8814 149.742L21.1621 151.558C21.1028 151.708 20.9584 151.769 20.8391 151.694C20.7202 151.619 20.672 151.436 20.7314 151.286L21.1924 150.122C21.2325 150.021 21.1743 149.902 21.0847 149.902H20.2314C20.0375 149.902 19.9316 149.658 20.0091 149.463L20.7314 147.639C20.7909 147.489 20.9355 147.428 21.0545 147.503C21.1734 147.579 21.2216 147.761 21.1621 147.911L20.7011 149.075C20.6611 149.176 20.7193 149.295 20.8088 149.295H21.6691C21.8416 149.295 21.9684 149.523 21.8814 149.742V149.742ZM27.6897 150.966C27.5602 150.927 27.4799 150.764 27.5102 150.6C27.5195 150.551 27.5285 150.5 27.537 150.45C27.565 150.286 27.6931 150.182 27.8231 150.217C27.9531 150.252 28.0358 150.414 28.0078 150.578C27.9986 150.632 27.9891 150.686 27.9791 150.739C27.9487 150.903 27.819 151.004 27.6897 150.966V150.966ZM16.5361 155.869C14.8195 154.196 13.7271 151.582 13.7236 148.663C13.7177 143.63 16.9592 139.532 20.9468 139.532C24.9307 139.532 28.1699 143.599 28.1699 148.649C28.1699 148.817 28.0621 148.953 27.9291 148.953C27.7961 148.953 27.6883 148.817 27.6883 148.649C27.6883 143.957 24.6641 140.14 20.9468 140.14C19.1488 140.14 17.4558 141.028 16.1798 142.641C13.305 146.275 13.605 152.245 16.8304 155.388C16.9357 155.491 16.9551 155.681 16.8738 155.814C16.7926 155.947 16.6413 155.972 16.5361 155.869V155.869ZM27.7019 151.884C26.7872 154.925 24.6411 157.135 22.1016 157.65C21.3664 157.798 20.706 157.081 20.706 156.149V155.069H20.4351C20.3021 155.069 20.1943 154.933 20.1943 154.765V154.608C20.1943 154.425 20.322 154.283 20.4658 154.307C20.7818 154.36 21.1057 154.361 21.4283 154.307C21.5719 154.283 21.6992 154.425 21.6992 154.608V154.765C21.6992 154.933 21.5914 155.069 21.4584 155.069H21.1875V156.149C21.1875 156.712 21.587 157.139 22.0251 157.05C24.3952 156.569 26.3978 154.507 27.2516 151.668C27.2989 151.511 27.4379 151.432 27.5622 151.492C27.6865 151.551 27.7491 151.727 27.7019 151.884V151.884Z" fill="#219653"/>
</g>
<path d="M14.0329 163.759H11.2907V171.364H10.1716V163.759H7.43523V162.833H14.0329V163.759ZM17.7477 165.997C17.5837 165.969 17.4059 165.956 17.2145 165.956C16.5036 165.956 16.0212 166.259 15.7673 166.864V171.364H14.6833V165.024H15.738L15.7555 165.757C16.111 165.19 16.6149 164.907 17.2673 164.907C17.4782 164.907 17.6384 164.934 17.7477 164.989V165.997ZM22.4294 171.364C22.3669 171.239 22.3161 171.016 22.277 170.696C21.7731 171.219 21.1716 171.481 20.4723 171.481C19.8473 171.481 19.3337 171.305 18.9313 170.954C18.5329 170.598 18.3337 170.149 18.3337 169.606C18.3337 168.946 18.5837 168.434 19.0837 168.071C19.5876 167.704 20.2946 167.52 21.2048 167.52H22.2594V167.022C22.2594 166.643 22.1462 166.343 21.9196 166.12C21.693 165.893 21.3591 165.78 20.9176 165.78C20.5309 165.78 20.2067 165.878 19.945 166.073C19.6833 166.268 19.5524 166.505 19.5524 166.782H18.4626C18.4626 166.466 18.5739 166.161 18.7966 165.868C19.0231 165.571 19.3278 165.337 19.7106 165.165C20.0973 164.993 20.5212 164.907 20.9821 164.907C21.7126 164.907 22.2848 165.091 22.6989 165.458C23.113 165.821 23.3278 166.323 23.3434 166.964V169.882C23.3434 170.464 23.4176 170.927 23.5661 171.27V171.364H22.4294ZM20.6305 170.538C20.9704 170.538 21.2926 170.45 21.5973 170.274C21.902 170.098 22.1227 169.87 22.2594 169.589V168.288H21.4098C20.0817 168.288 19.4176 168.677 19.4176 169.454C19.4176 169.794 19.5309 170.059 19.7575 170.251C19.9841 170.442 20.2751 170.538 20.6305 170.538ZM19.9567 172.8C19.9567 172.624 20.0094 172.475 20.1149 172.354C20.2243 172.233 20.3844 172.173 20.5954 172.173C20.8063 172.173 20.9665 172.233 21.0759 172.354C21.1852 172.475 21.2399 172.624 21.2399 172.8C21.2399 172.975 21.1852 173.122 21.0759 173.239C20.9665 173.356 20.8063 173.415 20.5954 173.415C20.3844 173.415 20.2243 173.356 20.1149 173.239C20.0094 173.122 19.9567 172.975 19.9567 172.8ZM26.0622 165.024L26.0915 165.727C26.5563 165.18 27.1833 164.907 27.9723 164.907C28.8591 164.907 29.4626 165.247 29.7829 165.927C29.9938 165.622 30.2673 165.376 30.6032 165.188C30.943 165.001 31.3434 164.907 31.8044 164.907C33.195 164.907 33.902 165.643 33.9255 167.116V171.364H32.8415V167.18C32.8415 166.727 32.738 166.389 32.5309 166.167C32.3239 165.94 31.9762 165.827 31.488 165.827C31.0856 165.827 30.7516 165.948 30.486 166.19C30.2204 166.428 30.0661 166.751 30.0231 167.157V171.364H28.9333V167.21C28.9333 166.288 28.4821 165.827 27.5798 165.827C26.8688 165.827 26.3825 166.13 26.1208 166.735V171.364H25.0368V165.024H26.0622ZM15.9606 183.682C15.9606 183.389 15.8493 183.163 15.6266 183.003C15.4079 182.839 15.0231 182.698 14.4723 182.581C13.9255 182.464 13.4899 182.323 13.1657 182.159C12.8454 181.995 12.6071 181.8 12.4509 181.573C12.2985 181.346 12.2223 181.077 12.2223 180.764C12.2223 180.245 12.4411 179.805 12.8786 179.446C13.32 179.087 13.8825 178.907 14.5661 178.907C15.2848 178.907 15.8669 179.093 16.3122 179.464C16.7614 179.835 16.986 180.309 16.986 180.887H15.8962C15.8962 180.591 15.7692 180.335 15.5153 180.12C15.2653 179.905 14.9489 179.798 14.5661 179.798C14.1716 179.798 13.863 179.884 13.6403 180.055C13.4176 180.227 13.3063 180.452 13.3063 180.729C13.3063 180.991 13.4098 181.188 13.6169 181.321C13.8239 181.454 14.1969 181.581 14.736 181.702C15.279 181.823 15.7184 181.968 16.0544 182.135C16.3903 182.303 16.6384 182.507 16.7985 182.745C16.9626 182.979 17.0446 183.266 17.0446 183.606C17.0446 184.173 16.818 184.628 16.3649 184.971C15.9118 185.311 15.3239 185.481 14.6012 185.481C14.0934 185.481 13.6442 185.391 13.2536 185.212C12.863 185.032 12.5563 184.782 12.3337 184.462C12.1149 184.137 12.0055 183.788 12.0055 183.413H13.0895C13.1091 183.776 13.2536 184.065 13.5231 184.28C13.7966 184.491 14.1559 184.596 14.6012 184.596C15.0114 184.596 15.3395 184.514 15.5856 184.35C15.8356 184.182 15.9606 183.96 15.9606 183.682ZM22.3708 185.364C22.3083 185.239 22.2575 185.016 22.2184 184.696C21.7145 185.219 21.113 185.481 20.4137 185.481C19.7887 185.481 19.2751 185.305 18.8727 184.954C18.4743 184.598 18.2751 184.149 18.2751 183.606C18.2751 182.946 18.5251 182.434 19.0251 182.071C19.529 181.704 20.236 181.52 21.1462 181.52H22.2009V181.022C22.2009 180.643 22.0876 180.343 21.861 180.12C21.6344 179.893 21.3005 179.78 20.8591 179.78C20.4723 179.78 20.1481 179.878 19.8864 180.073C19.6247 180.268 19.4938 180.505 19.4938 180.782H18.404C18.404 180.466 18.5153 180.161 18.738 179.868C18.9645 179.571 19.2692 179.337 19.652 179.165C20.0387 178.993 20.4626 178.907 20.9235 178.907C21.654 178.907 22.2262 179.091 22.6403 179.458C23.0544 179.821 23.2692 180.323 23.2848 180.964V183.882C23.2848 184.464 23.3591 184.927 23.5075 185.27V185.364H22.3708ZM20.5719 184.538C20.9118 184.538 21.2341 184.45 21.5387 184.274C21.8434 184.098 22.0641 183.87 22.2009 183.589V182.288H21.3512C20.0231 182.288 19.3591 182.677 19.3591 183.454C19.3591 183.794 19.4723 184.059 19.6989 184.251C19.9255 184.442 20.2165 184.538 20.5719 184.538ZM19.8981 186.8C19.8981 186.624 19.9509 186.475 20.0563 186.354C20.1657 186.233 20.3259 186.173 20.5368 186.173C20.7477 186.173 20.9079 186.233 21.0173 186.354C21.1266 186.475 21.1813 186.624 21.1813 186.8C21.1813 186.975 21.1266 187.122 21.0173 187.239C20.9079 187.356 20.7477 187.415 20.5368 187.415C20.3259 187.415 20.1657 187.356 20.0563 187.239C19.9509 187.122 19.8981 186.975 19.8981 186.8ZM27.527 184.596C27.9137 184.596 28.2516 184.479 28.5407 184.245C28.8298 184.01 28.9899 183.718 29.0212 183.366H30.0466C30.027 183.729 29.902 184.075 29.6716 184.403C29.4411 184.731 29.1325 184.993 28.7458 185.188C28.363 185.384 27.9567 185.481 27.527 185.481C26.6637 185.481 25.9762 185.194 25.4645 184.62C24.9567 184.042 24.7028 183.253 24.7028 182.253V182.071C24.7028 181.454 24.8161 180.905 25.0426 180.425C25.2692 179.944 25.5934 179.571 26.0153 179.305C26.4411 179.04 26.943 178.907 27.5212 178.907C28.2321 178.907 28.8219 179.12 29.2907 179.546C29.7634 179.971 30.0153 180.524 30.0466 181.204H29.0212C28.9899 180.794 28.8337 180.458 28.5524 180.196C28.2751 179.93 27.9313 179.798 27.5212 179.798C26.9704 179.798 26.5426 179.997 26.238 180.395C25.9372 180.79 25.7868 181.362 25.7868 182.112V182.317C25.7868 183.048 25.9372 183.61 26.238 184.005C26.5387 184.399 26.9684 184.596 27.527 184.596Z" fill="#333333"/>
<rect x="847.549" y="86.696" width="15.3355" height="19.8799" rx="3" stroke="#EB5757" stroke-width="2"/>
<line x1="855.495" y1="97.5477" x2="855.495" y2="214.24" stroke="#EB5757" stroke-width="2"/>
<line y1="-1" x2="12.3588" y2="-1" transform="matrix(0.584452 0.811428 -0.657023 0.75387 847.271 204.212)" stroke="#EB5757" stroke-width="2"/>
<line y1="-1" x2="12.3588" y2="-1" transform="matrix(-0.584452 0.811428 0.657023 0.75387 863.163 204.212)" stroke="#EB5757" stroke-width="2"/>
<rect x="0.693604" y="134.514" width="42.3263" height="57.3463" stroke="#BDBDBD"/>
<path d="M65.988 163.759H63.2459V171.364H62.1267V163.759H59.3904V162.833H65.988V163.759ZM68.1677 165.792C68.6482 165.202 69.2732 164.907 70.0427 164.907C71.3826 164.907 72.0584 165.663 72.0701 167.175V171.364H70.9861V167.169C70.9822 166.712 70.8767 166.374 70.6697 166.155C70.4666 165.936 70.1482 165.827 69.7146 165.827C69.363 165.827 69.0545 165.921 68.7888 166.108C68.5232 166.296 68.3162 166.542 68.1677 166.846V171.364H67.0837V162.364H68.1677V165.792ZM80.4607 164.52C80.4607 165.223 80.3162 165.719 80.0271 166.009C79.742 166.294 79.2869 166.444 78.6619 166.46V171.364H77.6306L77.6072 170.737C77.1853 171.233 76.5662 171.481 75.7498 171.481C75.074 171.481 74.5584 171.286 74.2029 170.895C73.8513 170.501 73.6736 169.919 73.6697 169.149V165.024H74.7537V169.12C74.7537 170.081 75.1443 170.561 75.9255 170.561C76.7537 170.561 77.3045 170.253 77.5779 169.635V165.024H78.6619V165.792C78.9275 165.784 79.1267 165.747 79.2595 165.68C79.3923 165.61 79.4861 165.505 79.5408 165.364C79.5994 165.223 79.6287 164.942 79.6287 164.52H80.4607ZM65.2673 179.997C65.1033 179.969 64.9255 179.956 64.7341 179.956C64.0232 179.956 63.5408 180.259 63.2869 180.864V185.364H62.2029V179.024H63.2576L63.2752 179.757C63.6306 179.19 64.1345 178.907 64.7869 178.907C64.9978 178.907 65.158 178.934 65.2673 178.989V179.997ZM69.949 185.364C69.8865 185.239 69.8357 185.016 69.7966 184.696C69.2927 185.219 68.6912 185.481 67.992 185.481C67.367 185.481 66.8533 185.305 66.4509 184.954C66.0525 184.598 65.8533 184.149 65.8533 183.606C65.8533 182.946 66.1033 182.434 66.6033 182.071C67.1072 181.704 67.8142 181.52 68.7244 181.52H69.7791V181.022C69.7791 180.643 69.6658 180.343 69.4392 180.12C69.2127 179.893 68.8787 179.78 68.4373 179.78C68.0505 179.78 67.7263 179.878 67.4646 180.073C67.2029 180.268 67.072 180.505 67.072 180.782H65.9822C65.9822 180.466 66.0935 180.161 66.3162 179.868C66.5427 179.571 66.8474 179.337 67.2302 179.165C67.617 178.993 68.0408 178.907 68.5017 178.907C69.2322 178.907 69.8045 179.091 70.2185 179.458C70.6326 179.821 70.8474 180.323 70.863 180.964V183.882C70.863 184.464 70.9373 184.927 71.0857 185.27V185.364H69.949ZM68.1502 184.538C68.49 184.538 68.8123 184.45 69.117 184.274C69.4216 184.098 69.6423 183.87 69.7791 183.589V182.288H68.9295C67.6013 182.288 66.9373 182.677 66.9373 183.454C66.9373 183.794 67.0505 184.059 67.2771 184.251C67.5037 184.442 67.7947 184.538 68.1502 184.538ZM69.1521 176.364H70.4646L68.8943 178.087H68.0212L69.1521 176.364ZM75.1052 184.596C75.492 184.596 75.8298 184.479 76.1189 184.245C76.408 184.01 76.5681 183.718 76.5994 183.366H77.6248C77.6052 183.729 77.4802 184.075 77.2498 184.403C77.0193 184.731 76.7107 184.993 76.324 185.188C75.9412 185.384 75.5349 185.481 75.1052 185.481C74.242 185.481 73.5545 185.194 73.0427 184.62C72.5349 184.042 72.281 183.253 72.281 182.253V182.071C72.281 181.454 72.3943 180.905 72.6209 180.425C72.8474 179.944 73.1716 179.571 73.5935 179.305C74.0193 179.04 74.5212 178.907 75.0994 178.907C75.8103 178.907 76.4002 179.12 76.8689 179.546C77.3416 179.971 77.5935 180.524 77.6248 181.204H76.5994C76.5681 180.794 76.4119 180.458 76.1306 180.196C75.8533 179.93 75.5095 179.798 75.0994 179.798C74.5486 179.798 74.1209 179.997 73.8162 180.395C73.5154 180.79 73.365 181.362 73.365 182.112V182.317C73.365 183.048 73.5154 183.61 73.8162 184.005C74.117 184.399 74.5466 184.596 75.1052 184.596Z" fill="#333333"/>
<rect x="47.9587" y="134.514" width="42.3263" height="57.3463" stroke="#BDBDBD"/>
<g clip-path="url(#clip2)">
<path d="M74.6771 142.023H71.2779V140.02C71.2779 139.724 71.0878 139.484 70.8534 139.484H67.8296C67.5951 139.484 67.405 139.724 67.405 140.02V142.023H64.0058C63.7714 142.023 63.5813 142.263 63.5813 142.559V144.717C63.5813 145.013 63.7714 145.253 64.0058 145.253H64.0822L64.713 157.217C64.7278 157.498 64.913 157.717 65.1366 157.717H73.5464C73.7699 157.717 73.9551 157.498 73.97 157.217L74.6007 145.253H74.6771C74.9116 145.253 75.1017 145.013 75.1017 144.717V142.559C75.1016 142.263 74.9116 142.023 74.6771 142.023V142.023ZM68.2541 140.556H70.4288V142.023H68.2541V140.556ZM64.4304 143.095H74.2525V144.181H64.4304V143.095ZM73.1492 156.646H65.5338L64.9332 145.253H73.7497L73.1492 156.646Z" fill="#219653"/>
<path d="M67.8763 148.896C68.2161 148.467 68.668 148.231 69.1486 148.231C69.6292 148.231 70.081 148.467 70.4209 148.896C70.6467 149.181 70.8048 149.529 70.8857 149.908C70.7194 149.752 70.4836 149.768 70.3328 149.959C70.167 150.168 70.167 150.507 70.3328 150.716L71.0722 151.65C71.1518 151.75 71.2598 151.807 71.3724 151.807C71.485 151.807 71.5929 151.75 71.6726 151.65L72.412 150.716C72.5778 150.507 72.5778 150.168 72.412 149.959C72.2462 149.749 71.9774 149.749 71.8116 149.959L71.7687 150.013C71.687 149.305 71.4287 148.652 71.0213 148.138C70.5211 147.507 69.856 147.159 69.1486 147.159C68.4412 147.159 67.7762 147.507 67.276 148.138C67.1102 148.347 67.1102 148.687 67.276 148.896C67.4417 149.105 67.7105 149.105 67.8763 148.896V148.896Z" fill="#219653"/>
<path d="M66.8715 151.94L66.9144 151.885C66.9961 152.593 67.2543 153.246 67.6618 153.76C68.162 154.392 68.8271 154.739 69.5345 154.739C70.2419 154.739 70.9069 154.392 71.4071 153.76C71.5729 153.551 71.5729 153.212 71.4071 153.002C71.2413 152.793 70.9725 152.793 70.8067 153.002C70.4669 153.431 70.015 153.668 69.5344 153.668C69.0539 153.668 68.602 153.431 68.2622 153.002C68.0363 152.717 67.8782 152.369 67.7974 151.991C67.8722 152.061 67.961 152.097 68.05 152.097C68.1587 152.097 68.2673 152.044 68.3502 151.94C68.516 151.73 68.516 151.391 68.3502 151.182L67.6108 150.249C67.4451 150.039 67.1763 150.039 67.0105 150.249L66.2711 151.182C66.1053 151.391 66.1053 151.73 66.2711 151.94C66.4369 152.149 66.7057 152.149 66.8715 151.94V151.94Z" fill="#219653"/>
</g>
<defs>
<clipPath id="clip0">
<rect width="14.4462" height="18.2332" fill="white" transform="translate(879.053 191.449)"/>
</clipPath>
<clipPath id="clip1">
<rect width="14.4462" height="18.2332" fill="white" transform="translate(13.7239 139.484)"/>
</clipPath>
<clipPath id="clip2">
<rect width="14.4462" height="18.2332" fill="white" transform="translate(62.1184 139.484)"/>
</clipPath>
</defs>
</svg>
