<svg width="55" height="62" id="Group_455" viewBox="0 0 55 62" fill="none" xmlns="http://www.w3.org/2000/svg">

<rect x="0.5" y="0.733063" width="54" height="60.4428" stroke="#BDBDBD"/>
<g clip-path="url(#clip01)">
	<path d="M34.5522 8.66747H30.2371V6.55763C30.2371 6.246 29.9958 5.99336 29.6982 5.99336H25.8597C25.5621 5.99336 25.3208 6.246 25.3208 6.55763V8.66747H21.0057C20.7081 8.66747 20.4668 8.92011 20.4668 9.23174V11.5042C20.4668 11.8158 20.7081 12.0684 21.0057 12.0684H21.1027L21.9034 24.6675C21.9222 24.9639 22.1573 25.1943 22.4411 25.1943H33.1168C33.4006 25.1943 33.6357 24.9639 33.6546 24.6675L34.4552 12.0684H34.5522C34.8498 12.0684 35.0911 11.8158 35.0911 11.5042V9.23174C35.0911 8.92011 34.8498 8.66747 34.5522 8.66747ZM26.3987 7.1219H29.1593V8.66747H26.3987V7.1219ZM21.5447 9.79601H34.0133V10.9399H21.5447V9.79601ZM32.6126 24.0657H22.9454L22.183 12.0684H33.375L32.6126 24.0657Z" fill="#219653"/>
	<path d="M25.919 15.9048C26.3504 15.4531 26.924 15.2043 27.5341 15.2043C28.1442 15.2043 28.7177 15.4531 29.1491 15.9048C29.4358 16.2049 29.6365 16.5714 29.7392 16.9703C29.5281 16.806 29.2288 16.8235 29.0374 17.024C28.8269 17.2443 28.8269 17.6016 29.0373 17.822L29.976 18.8047C30.077 18.9106 30.2141 18.97 30.357 18.97C30.4999 18.97 30.637 18.9106 30.7381 18.8047L31.6767 17.822C31.8872 17.6016 31.8872 17.2443 31.6767 17.024C31.4663 16.8036 31.125 16.8036 30.9146 17.024L30.8601 17.081C30.7564 16.3361 30.4285 15.6483 29.9113 15.1068C29.2763 14.4419 28.4321 14.0758 27.5341 14.0758C26.6361 14.0758 25.7918 14.4419 25.1569 15.1068C24.9464 15.3271 24.9464 15.6844 25.1569 15.9048C25.3673 16.1251 25.7086 16.1251 25.919 15.9048Z" fill="#219653"/>
	<path d="M24.6434 19.1101L24.6979 19.0531C24.8016 19.798 25.1294 20.4858 25.6467 21.0273C26.2817 21.6922 27.1259 22.0583 28.0239 22.0583C28.9219 22.0583 29.7661 21.6922 30.4011 21.0273C30.6116 20.807 30.6116 20.4497 30.4011 20.2293C30.1907 20.009 29.8494 20.009 29.6389 20.2293C29.2076 20.681 28.634 20.9298 28.0239 20.9298C27.4138 20.9298 26.8402 20.681 26.4088 20.2293C26.1221 19.9292 25.9214 19.5627 25.8188 19.1638C25.9138 19.2377 26.0265 19.2754 26.1395 19.2754C26.2775 19.2754 26.4154 19.2203 26.5206 19.1101C26.731 18.8898 26.731 18.5325 26.5206 18.3121L25.582 17.3294C25.3716 17.1091 25.0303 17.1091 24.8198 17.3294L23.8812 18.3121C23.6708 18.5325 23.6708 18.8898 23.8812 19.1101C24.0917 19.3305 24.433 19.3304 24.6434 19.1101Z" fill="#219653"/>
</g>
<defs>
<clipPath id="clip01">
<rect width="18.3386" height="19.2009" fill="white" transform="translate(18.6096 5.99335)"/>
</clipPath>
</defs>
</svg>
