<svg width="44" height="59" id="tramsac" viewBox="0 0 44 59" fill="none" xmlns="http://www.w3.org/2000/svg">
<g clip-path="url(#clip0)">
<path d="M24.3175 11.762H23.0535V8.6092C23.0535 8.4413 22.9458 8.30532 22.8127 8.30532C22.6797 8.30532 22.572 8.4413 22.572 8.6092V11.762H19.3216V8.6092C19.3216 8.4413 19.2138 8.30532 19.0808 8.30532C18.9478 8.30532 18.84 8.4413 18.84 8.6092V11.762H17.576C17.4429 11.762 17.3352 11.898 17.3352 12.0659C17.3352 12.2338 17.4429 12.3698 17.576 12.3698H17.7866V15.7505C17.7866 17.9499 19.2042 19.7391 20.9468 19.7391C22.6893 19.7391 24.1069 17.9499 24.1069 15.7505V12.3698H24.3175C24.4506 12.3698 24.5583 12.2338 24.5583 12.0659C24.5583 11.898 24.4506 11.762 24.3175 11.762ZM21.8814 15.7423L21.1621 17.5578C21.1028 17.7076 20.9584 17.7689 20.8391 17.6937C20.7202 17.6186 20.672 17.4361 20.7314 17.286L21.1924 16.1224C21.2325 16.0213 21.1743 15.9025 21.0847 15.9025H20.2314C20.0375 15.9025 19.9316 15.6583 20.0091 15.4627L20.7314 13.6394C20.7909 13.4893 20.9355 13.4284 21.0545 13.5035C21.1734 13.5785 21.2216 13.7611 21.1621 13.9112L20.7011 15.0748C20.6611 15.1759 20.7193 15.2947 20.8088 15.2947H21.6691C21.8416 15.2947 21.9684 15.5225 21.8814 15.7423ZM27.6897 16.9656C27.5602 16.9273 27.4799 16.7638 27.5103 16.6004C27.5195 16.5505 27.5285 16.5004 27.537 16.4502C27.565 16.2861 27.6931 16.1819 27.8231 16.217C27.9531 16.2523 28.0358 16.414 28.0078 16.5781C27.9986 16.6319 27.9891 16.6857 27.9791 16.7392C27.9487 16.9027 27.819 17.004 27.6897 16.9656ZM16.5361 21.8691C14.8195 20.1962 13.7271 17.5823 13.7236 14.6628C13.7177 9.63011 16.9592 5.53235 20.9468 5.53235C24.9307 5.53235 28.1699 9.59938 28.1699 14.649C28.1699 14.8168 28.0621 14.9528 27.9291 14.9528C27.7961 14.9528 27.6883 14.8168 27.6883 14.649C27.6883 9.95721 24.6641 6.14016 20.9468 6.14012C19.1488 6.14012 17.4558 7.02835 16.1798 8.64122C13.305 12.275 13.605 18.2449 16.8304 21.388C16.9357 21.4906 16.9551 21.6814 16.8738 21.8143C16.7926 21.9472 16.6413 21.9716 16.5361 21.8691ZM27.7019 17.8838C26.7872 20.925 24.6411 23.1346 22.1016 23.6497C21.3664 23.7984 20.706 23.0808 20.706 22.1493V21.0686H20.4351C20.3021 21.0686 20.1943 20.9326 20.1943 20.7647V20.6078C20.1943 20.4247 20.322 20.2826 20.4658 20.3069C20.7818 20.3597 21.1057 20.3609 21.4283 20.3066C21.5719 20.2826 21.6992 20.4251 21.6992 20.6082V20.7647C21.6992 20.9326 21.5914 21.0686 21.4584 21.0686H21.1875V22.1493C21.1875 22.7122 21.587 23.1385 22.0251 23.0495C24.3952 22.5686 26.3978 20.5067 27.2516 17.6681C27.2989 17.5112 27.4379 17.4322 27.5622 17.4918C27.6865 17.5514 27.7491 17.7269 27.7019 17.8838Z" fill="#219653"/>
</g>
<path d="M14.0329 29.7585H11.2907V37.364H10.1716V29.7585H7.43523V28.8328H14.0329V29.7585ZM17.7477 31.9968C17.5837 31.9695 17.4059 31.9558 17.2145 31.9558C16.5036 31.9558 16.0212 32.2585 15.7673 32.864V37.364H14.6833V31.0242H15.738L15.7555 31.7566C16.111 31.1902 16.6149 30.907 17.2673 30.907C17.4782 30.907 17.6384 30.9343 17.7477 30.989V31.9968ZM22.4294 37.364C22.3669 37.239 22.3161 37.0164 22.277 36.696C21.7731 37.2195 21.1716 37.4812 20.4723 37.4812C19.8473 37.4812 19.3337 37.3054 18.9313 36.9539C18.5329 36.5984 18.3337 36.1492 18.3337 35.6062C18.3337 34.946 18.5837 34.4343 19.0837 34.071C19.5876 33.7039 20.2946 33.5203 21.2048 33.5203H22.2594V33.0222C22.2594 32.6433 22.1462 32.3425 21.9196 32.1199C21.693 31.8933 21.3591 31.78 20.9176 31.78C20.5309 31.78 20.2067 31.8777 19.945 32.073C19.6833 32.2683 19.5524 32.5046 19.5524 32.782H18.4626C18.4626 32.4656 18.5739 32.1609 18.7966 31.8679C19.0231 31.571 19.3278 31.3367 19.7106 31.1648C20.0973 30.9929 20.5212 30.907 20.9821 30.907C21.7126 30.907 22.2848 31.0906 22.6989 31.4578C23.113 31.821 23.3278 32.323 23.3434 32.9636V35.8816C23.3434 36.4636 23.4176 36.9265 23.5661 37.2703V37.364H22.4294ZM20.6305 36.5378C20.9704 36.5378 21.2926 36.45 21.5973 36.2742C21.902 36.0984 22.1227 35.8699 22.2594 35.5886V34.2878H21.4098C20.0817 34.2878 19.4176 34.6765 19.4176 35.4539C19.4176 35.7937 19.5309 36.0593 19.7575 36.2507C19.9841 36.4421 20.2751 36.5378 20.6305 36.5378ZM19.9567 38.7996C19.9567 38.6238 20.0094 38.4753 20.1149 38.3542C20.2243 38.2332 20.3844 38.1726 20.5954 38.1726C20.8063 38.1726 20.9665 38.2332 21.0759 38.3542C21.1852 38.4753 21.2399 38.6238 21.2399 38.7996C21.2399 38.9753 21.1852 39.1218 21.0759 39.239C20.9665 39.3562 20.8063 39.4148 20.5954 39.4148C20.3844 39.4148 20.2243 39.3562 20.1149 39.239C20.0094 39.1218 19.9567 38.9753 19.9567 38.7996ZM26.0622 31.0242L26.0915 31.7273C26.5563 31.1804 27.1833 30.907 27.9723 30.907C28.8591 30.907 29.4626 31.2468 29.7829 31.9265C29.9938 31.6218 30.2673 31.3757 30.6032 31.1882C30.943 31.0007 31.3434 30.907 31.8044 30.907C33.195 30.907 33.902 31.6433 33.9255 33.116V37.364H32.8415V33.1804C32.8415 32.7273 32.738 32.3894 32.5309 32.1667C32.3239 31.9402 31.9762 31.8269 31.488 31.8269C31.0856 31.8269 30.7516 31.948 30.486 32.1902C30.2204 32.4285 30.0661 32.7507 30.0231 33.157V37.364H28.9333V33.2097C28.9333 32.2878 28.4821 31.8269 27.5798 31.8269C26.8688 31.8269 26.3825 32.1296 26.1208 32.7351V37.364H25.0368V31.0242H26.0622ZM15.9606 49.6824C15.9606 49.3894 15.8493 49.1628 15.6266 49.0027C15.4079 48.8386 15.0231 48.698 14.4723 48.5808C13.9255 48.4636 13.4899 48.323 13.1657 48.1589C12.8454 47.9949 12.6071 47.7996 12.4509 47.573C12.2985 47.3464 12.2223 47.0769 12.2223 46.7644C12.2223 46.2449 12.4411 45.8054 12.8786 45.446C13.32 45.0867 13.8825 44.907 14.5661 44.907C15.2848 44.907 15.8669 45.0925 16.3122 45.4636C16.7614 45.8347 16.986 46.3093 16.986 46.8875H15.8962C15.8962 46.5906 15.7692 46.3347 15.5153 46.1199C15.2653 45.905 14.9489 45.7976 14.5661 45.7976C14.1716 45.7976 13.863 45.8835 13.6403 46.0554C13.4176 46.2273 13.3063 46.4519 13.3063 46.7292C13.3063 46.991 13.4098 47.1882 13.6169 47.321C13.8239 47.4539 14.1969 47.5808 14.736 47.7019C15.279 47.823 15.7184 47.9675 16.0544 48.1355C16.3903 48.3035 16.6384 48.5066 16.7985 48.7449C16.9626 48.9792 17.0446 49.2664 17.0446 49.6062C17.0446 50.1726 16.818 50.6277 16.3649 50.9714C15.9118 51.3113 15.3239 51.4812 14.6012 51.4812C14.0934 51.4812 13.6442 51.3914 13.2536 51.2117C12.863 51.032 12.5563 50.782 12.3337 50.4617C12.1149 50.1375 12.0055 49.7878 12.0055 49.4128H13.0895C13.1091 49.7761 13.2536 50.0652 13.5231 50.28C13.7966 50.491 14.1559 50.5964 14.6012 50.5964C15.0114 50.5964 15.3395 50.5144 15.5856 50.3503C15.8356 50.1824 15.9606 49.9597 15.9606 49.6824ZM22.3708 51.364C22.3083 51.239 22.2575 51.0164 22.2184 50.696C21.7145 51.2195 21.113 51.4812 20.4137 51.4812C19.7887 51.4812 19.2751 51.3054 18.8727 50.9539C18.4743 50.5984 18.2751 50.1492 18.2751 49.6062C18.2751 48.946 18.5251 48.4343 19.0251 48.071C19.529 47.7039 20.236 47.5203 21.1462 47.5203H22.2009V47.0222C22.2009 46.6433 22.0876 46.3425 21.861 46.1199C21.6344 45.8933 21.3005 45.78 20.8591 45.78C20.4723 45.78 20.1481 45.8777 19.8864 46.073C19.6247 46.2683 19.4938 46.5046 19.4938 46.782H18.404C18.404 46.4656 18.5153 46.1609 18.738 45.8679C18.9645 45.571 19.2692 45.3367 19.652 45.1648C20.0387 44.9929 20.4626 44.907 20.9235 44.907C21.654 44.907 22.2262 45.0906 22.6403 45.4578C23.0544 45.821 23.2692 46.323 23.2848 46.9636V49.8816C23.2848 50.4636 23.3591 50.9265 23.5075 51.2703V51.364H22.3708ZM20.5719 50.5378C20.9118 50.5378 21.2341 50.45 21.5387 50.2742C21.8434 50.0984 22.0641 49.8699 22.2009 49.5886V48.2878H21.3512C20.0231 48.2878 19.3591 48.6765 19.3591 49.4539C19.3591 49.7937 19.4723 50.0593 19.6989 50.2507C19.9255 50.4421 20.2165 50.5378 20.5719 50.5378ZM19.8981 52.7996C19.8981 52.6238 19.9509 52.4753 20.0563 52.3542C20.1657 52.2332 20.3259 52.1726 20.5368 52.1726C20.7477 52.1726 20.9079 52.2332 21.0173 52.3542C21.1266 52.4753 21.1813 52.6238 21.1813 52.7996C21.1813 52.9753 21.1266 53.1218 21.0173 53.239C20.9079 53.3562 20.7477 53.4148 20.5368 53.4148C20.3259 53.4148 20.1657 53.3562 20.0563 53.239C19.9509 53.1218 19.8981 52.9753 19.8981 52.7996ZM27.527 50.5964C27.9137 50.5964 28.2516 50.4792 28.5407 50.2449C28.8298 50.0105 28.9899 49.7175 29.0212 49.366H30.0466C30.027 49.7292 29.902 50.075 29.6716 50.4031C29.4411 50.7312 29.1325 50.9929 28.7458 51.1882C28.363 51.3835 27.9567 51.4812 27.527 51.4812C26.6637 51.4812 25.9762 51.1941 25.4645 50.6199C24.9567 50.0417 24.7028 49.2527 24.7028 48.2527V48.071C24.7028 47.4539 24.8161 46.905 25.0426 46.4246C25.2692 45.9441 25.5934 45.571 26.0153 45.3054C26.4411 45.0398 26.943 44.907 27.5212 44.907C28.2321 44.907 28.8219 45.1199 29.2907 45.5457C29.7634 45.9714 30.0153 46.5242 30.0466 47.2039H29.0212C28.9899 46.7937 28.8337 46.4578 28.5524 46.196C28.2751 45.9304 27.9313 45.7976 27.5212 45.7976C26.9704 45.7976 26.5426 45.9968 26.238 46.3953C25.9372 46.7898 25.7868 47.3621 25.7868 48.1121V48.3171C25.7868 49.0476 25.9372 49.6101 26.238 50.0046C26.5387 50.3992 26.9684 50.5964 27.527 50.5964Z" fill="#333333"/>
<rect x="0.693604" y="0.514038" width="42.3263" height="57.3463" stroke="#BDBDBD"/>
<defs>
<clipPath id="clip0">
<rect width="14.4462" height="18.2332" fill="white" transform="translate(13.7239 5.48413)"/>
</clipPath>
</defs>
</svg>
